<?xml version="1.0" encoding="utf-8" standalone="no"?>
<!DOCTYPE svg PUBLIC "-//W3C//DTD SVG 1.1//EN"
  "http://www.w3.org/Graphics/SVG/1.1/DTD/svg11.dtd">
<svg xmlns:xlink="http://www.w3.org/1999/xlink" width="767.660937pt" height="432.709109pt" viewBox="0 0 767.660937 432.709109" xmlns="http://www.w3.org/2000/svg" version="1.1">
 <metadata>
  <rdf:RDF xmlns:dc="http://purl.org/dc/elements/1.1/" xmlns:cc="http://creativecommons.org/ns#" xmlns:rdf="http://www.w3.org/1999/02/22-rdf-syntax-ns#">
   <cc:Work>
    <dc:type rdf:resource="http://purl.org/dc/dcmitype/StillImage"/>
    <dc:date>2026-05-14T05:27:02.822882</dc:date>
    <dc:format>image/svg+xml</dc:format>
    <dc:creator>
     <cc:Agent>
      <dc:title>Matplotlib v3.10.3, https://matplotlib.org/</dc:title>
     </cc:Agent>
    </dc:creator>
   </cc:Work>
  </rdf:RDF>
 </metadata>
 <defs>
  <style type="text/css">*{stroke-linejoin: round; stroke-linecap: butt}</style>
 </defs>
 <g id="figure_1">
  <g id="patch_1">
   <path d="M 0 432.709109 
L 767.660937 432.709109 
L 767.660937 0 
L 0 0 
z
" style="fill: #ffffff"/>
  </g>
  <g id="axes_1">
   <g id="patch_2">
    <path d="M 328.606469 110.8728 
L 460.294469 110.8728 
Q 483.339869 110.8728 483.339869 97.67808 
L 483.339869 71.28864 
Q 483.339869 58.09392 460.294469 58.09392 
L 328.606469 58.09392 
Q 305.561069 58.09392 305.561069 71.28864 
L 305.561069 97.67808 
Q 305.561069 110.8728 328.606469 110.8728 
z
" clip-path="url(#p1d686e0e51)" style="fill: #eaf1ff; stroke: #2f5d9b; stroke-width: 1.6; stroke-linejoin: miter"/>
   </g>
   <g id="patch_3">
    <path d="M 124.490069 205.1208 
L 236.424869 205.1208 
Q 259.470269 205.1208 259.470269 191.92608 
L 259.470269 169.30656 
Q 259.470269 156.11184 236.424869 156.11184 
L 124.490069 156.11184 
Q 101.444669 156.11184 101.444669 169.30656 
L 101.444669 191.92608 
Q 101.444669 205.1208 124.490069 205.1208 
z
" clip-path="url(#p1d686e0e51)" style="fill: #e8f1ff; stroke: #6e95c8; stroke-width: 1.6; stroke-linejoin: miter"/>
   </g>
   <g id="patch_4">
    <path d="M 275.931269 205.1208 
L 387.866069 205.1208 
Q 410.911469 205.1208 410.911469 191.92608 
L 410.911469 169.30656 
Q 410.911469 156.11184 387.866069 156.11184 
L 275.931269 156.11184 
Q 252.885869 156.11184 252.885869 169.30656 
L 252.885869 191.92608 
Q 252.885869 205.1208 275.931269 205.1208 
z
" clip-path="url(#p1d686e0e51)" style="fill: #e8f1ff; stroke: #6e95c8; stroke-width: 1.6; stroke-linejoin: miter"/>
   </g>
   <g id="patch_5">
    <path d="M 427.372469 205.1208 
L 539.307269 205.1208 
Q 562.352669 205.1208 562.352669 191.92608 
L 562.352669 169.30656 
Q 562.352669 156.11184 539.307269 156.11184 
L 427.372469 156.11184 
Q 404.327069 156.11184 404.327069 169.30656 
L 404.327069 191.92608 
Q 404.327069 205.1208 427.372469 205.1208 
z
" clip-path="url(#p1d686e0e51)" style="fill: #e8f1ff; stroke: #6e95c8; stroke-width: 1.6; stroke-linejoin: miter"/>
   </g>
   <g id="patch_6">
    <path d="M 578.813669 205.1208 
L 664.410869 205.1208 
Q 687.456269 205.1208 687.456269 191.92608 
L 687.456269 169.30656 
Q 687.456269 156.11184 664.410869 156.11184 
L 578.813669 156.11184 
Q 555.768269 156.11184 555.768269 169.30656 
L 555.768269 191.92608 
Q 555.768269 205.1208 578.813669 205.1208 
z
" clip-path="url(#p1d686e0e51)" style="fill: #e8f1ff; stroke: #6e95c8; stroke-width: 1.6; stroke-linejoin: miter"/>
   </g>
   <g id="patch_7">
    <path d="M 275.931269 280.5192 
L 381.281669 280.5192 
Q 404.327069 280.5192 404.327069 267.32448 
L 404.327069 242.82 
Q 404.327069 229.62528 381.281669 229.62528 
L 275.931269 229.62528 
Q 252.885869 229.62528 252.885869 242.82 
L 252.885869 267.32448 
Q 252.885869 280.5192 275.931269 280.5192 
z
" clip-path="url(#p1d686e0e51)" style="fill: #f3f4f6; stroke: #8a8f98; stroke-width: 1.6; stroke-linejoin: miter"/>
   </g>
   <g id="patch_8">
    <path d="M 420.788069 280.5192 
L 526.138469 280.5192 
Q 549.183869 280.5192 549.183869 267.32448 
L 549.183869 242.82 
Q 549.183869 229.62528 526.138469 229.62528 
L 420.788069 229.62528 
Q 397.742669 229.62528 397.742669 242.82 
L 397.742669 267.32448 
Q 397.742669 280.5192 420.788069 280.5192 
z
" clip-path="url(#p1d686e0e51)" style="fill: #e8f6ee; stroke: #2a9d62; stroke-width: 1.6; stroke-linejoin: miter"/>
   </g>
   <g id="patch_9">
    <path d="M 328.606469 348.37776 
L 460.294469 348.37776 
Q 483.339869 348.37776 483.339869 335.18304 
L 483.339869 310.67856 
Q 483.339869 297.48384 460.294469 297.48384 
L 328.606469 297.48384 
Q 305.561069 297.48384 305.561069 310.67856 
L 305.561069 335.18304 
Q 305.561069 348.37776 328.606469 348.37776 
z
" clip-path="url(#p1d686e0e51)" style="fill: #fff4e6; stroke: #d98c2b; stroke-width: 1.6; stroke-linejoin: miter"/>
   </g>
   <g id="patch_10">
    <path d="M 392.527222 102.007051 
Q 287.451798 132.550471 183.933089 162.641384 
" clip-path="url(#p1d686e0e51)" style="fill: none; stroke: #2f5d9b; stroke-width: 1.45; stroke-linecap: round"/>
    <path d="M 190.092069 163.766981 
L 183.933089 162.641384 
L 188.528955 158.389558 
z
" clip-path="url(#p1d686e0e51)" style="fill: #2f5d9b; stroke: #2f5d9b; stroke-width: 1.45; stroke-linecap: round"/>
   </g>
   <g id="patch_11">
    <path d="M 393.032134 102.858441 
Q 363.17528 132.549133 334.467945 161.096703 
" clip-path="url(#p1d686e0e51)" style="fill: none; stroke: #2f5d9b; stroke-width: 1.45; stroke-linecap: round"/>
    <path d="M 340.413143 159.133386 
L 334.467945 161.096703 
L 336.46441 155.162554 
z
" clip-path="url(#p1d686e0e51)" style="fill: #2f5d9b; stroke: #2f5d9b; stroke-width: 1.45; stroke-linecap: round"/>
   </g>
   <g id="patch_12">
    <path d="M 396.091646 102.596475 
Q 438.897006 132.551126 480.374137 161.576298 
" clip-path="url(#p1d686e0e51)" style="fill: none; stroke: #2f5d9b; stroke-width: 1.45; stroke-linecap: round"/>
    <path d="M 477.391347 156.071486 
L 480.374137 161.576298 
L 474.180613 160.659643 
z
" clip-path="url(#p1d686e0e51)" style="fill: #2f5d9b; stroke: #2f5d9b; stroke-width: 1.45; stroke-linecap: round"/>
   </g>
   <g id="patch_13">
    <path d="M 396.38115 101.976678 
Q 508.0327 132.550204 618.120662 162.695574 
" clip-path="url(#p1d686e0e51)" style="fill: none; stroke: #2f5d9b; stroke-width: 1.45; stroke-linecap: round"/>
    <path d="M 613.458999 158.515993 
L 618.120662 162.695574 
L 611.979999 163.917156 
z
" clip-path="url(#p1d686e0e51)" style="fill: #2f5d9b; stroke: #2f5d9b; stroke-width: 1.45; stroke-linecap: round"/>
   </g>
   <g id="patch_14">
    <path d="M 182.378957 196.258301 
Q 254.531042 217.372769 325.234534 238.063323 
" clip-path="url(#p1d686e0e51)" style="fill: none; stroke: #6b7280; stroke-width: 1.35; stroke-linecap: round"/>
    <path d="M 320.646346 233.803213 
L 325.234534 238.063323 
L 319.073534 239.177807 
z
" clip-path="url(#p1d686e0e51)" style="fill: #6b7280; stroke: #6b7280; stroke-width: 1.35; stroke-linecap: round"/>
   </g>
   <g id="patch_15">
    <path d="M 331.747361 197.688531 
Q 330.252542 217.373387 328.872011 235.55323 
" clip-path="url(#p1d686e0e51)" style="fill: none; stroke: #6b7280; stroke-width: 1.35; stroke-linecap: round"/>
    <path d="M 332.088002 230.181321 
L 328.872011 235.55323 
L 326.504078 229.757292 
z
" clip-path="url(#p1d686e0e51)" style="fill: #6b7280; stroke: #6b7280; stroke-width: 1.35; stroke-linecap: round"/>
   </g>
   <g id="patch_16">
    <path d="M 481.417979 196.234486 
Q 405.975223 217.372464 331.985844 238.103228 
" clip-path="url(#p1d686e0e51)" style="fill: none; stroke: #6b7280; stroke-width: 1.35; stroke-linecap: round"/>
    <path d="M 338.13361 239.288541 
L 331.985844 238.103228 
L 336.622755 233.896202 
z
" clip-path="url(#p1d686e0e51)" style="fill: #6b7280; stroke: #6b7280; stroke-width: 1.35; stroke-linecap: round"/>
   </g>
   <g id="patch_17">
    <path d="M 619.631654 195.989058 
Q 475.107115 217.373373 332.075667 238.536766 
" clip-path="url(#p1d686e0e51)" style="fill: none; stroke: #6b7280; stroke-width: 1.35; stroke-linecap: round"/>
    <path d="M 338.02519 240.48694 
L 332.075667 238.536766 
L 337.20552 234.947252 
z
" clip-path="url(#p1d686e0e51)" style="fill: #6b7280; stroke: #6b7280; stroke-width: 1.35; stroke-linecap: round"/>
   </g>
   <g id="patch_18">
    <path d="M 389.869038 255.260736 
Q 401.036768 255.260736 410.415644 255.260736 
" clip-path="url(#p1d686e0e51)" style="fill: none; stroke: #6b7280; stroke-width: 1.6; stroke-linecap: round"/>
    <path d="M 404.815644 252.460736 
L 410.415644 255.260736 
L 404.815644 258.060736 
z
" clip-path="url(#p1d686e0e51)" style="fill: #6b7280; stroke: #6b7280; stroke-width: 1.6; stroke-linecap: round"/>
   </g>
   <g id="patch_19">
    <path d="M 471.642753 271.919588 
Q 433.957097 289.001416 398.002567 305.298576 
" clip-path="url(#p1d686e0e51)" style="fill: none; stroke: #2a9d62; stroke-width: 1.7; stroke-linecap: round"/>
    <path d="M 404.259019 305.536915 
L 398.002567 305.298576 
L 401.947109 300.436418 
z
" clip-path="url(#p1d686e0e51)" style="fill: #2a9d62; stroke: #2a9d62; stroke-width: 1.7; stroke-linecap: round"/>
   </g>
   <g id="patch_20">
    <path d="M 330.262214 272.220153 
Q 354.94518 289.002275 378.056373 304.715739 
" clip-path="url(#p1d686e0e51)" style="fill: none; stroke: #8a8f98; stroke-width: 1.7; stroke-linecap: round"/>
    <path d="M 374.999705 299.251603 
L 378.056373 304.715739 
L 371.851063 303.882591 
z
" clip-path="url(#p1d686e0e51)" style="fill: #8a8f98; stroke: #8a8f98; stroke-width: 1.7; stroke-linecap: round"/>
   </g>
   <g id="patch_21">
    <path d="M 468.432186 320.728967 
Q 612.5783 203.236106 470.166076 87.156005 
" clip-path="url(#p1d686e0e51)" style="fill: none; stroke-dasharray: 7.4,3.2; stroke-dashoffset: 0; stroke: #7c3aed; stroke-width: 2; stroke-linecap: round"/>
    <path d="M 472.737732 92.864471 
L 470.166076 87.156005 
L 476.275842 88.52376 
z
" clip-path="url(#p1d686e0e51)" style="fill: #7c3aed; stroke-dasharray: 7.4,3.2; stroke-dashoffset: 0; stroke: #7c3aed; stroke-width: 2; stroke-linecap: round"/>
   </g>
   <g id="text_1">
    <!-- Recursive Strong-to-Weak Multi-Agent Guidance -->
    <g style="fill: #222222" transform="translate(148.823594 34.716083) scale(0.18 -0.18)">
     <defs>
      <path id="DejaVuSans-Bold-52" d="M 2297 2597 
Q 2675 2597 2839 2737 
Q 3003 2878 3003 3200 
Q 3003 3519 2839 3656 
Q 2675 3794 2297 3794 
L 1791 3794 
L 1791 2597 
L 2297 2597 
z
M 1791 1766 
L 1791 0 
L 588 0 
L 588 4666 
L 2425 4666 
Q 3347 4666 3776 4356 
Q 4206 4047 4206 3378 
Q 4206 2916 3982 2619 
Q 3759 2322 3309 2181 
Q 3556 2125 3751 1926 
Q 3947 1728 4147 1325 
L 4800 0 
L 3519 0 
L 2950 1159 
Q 2778 1509 2601 1637 
Q 2425 1766 2131 1766 
L 1791 1766 
z
" transform="scale(0.015625)"/>
      <path id="DejaVuSans-Bold-65" d="M 4031 1759 
L 4031 1441 
L 1416 1441 
Q 1456 1047 1700 850 
Q 1944 653 2381 653 
Q 2734 653 3104 758 
Q 3475 863 3866 1075 
L 3866 213 
Q 3469 63 3072 -14 
Q 2675 -91 2278 -91 
Q 1328 -91 801 392 
Q 275 875 275 1747 
Q 275 2603 792 3093 
Q 1309 3584 2216 3584 
Q 3041 3584 3536 3087 
Q 4031 2591 4031 1759 
z
M 2881 2131 
Q 2881 2450 2695 2645 
Q 2509 2841 2209 2841 
Q 1884 2841 1681 2658 
Q 1478 2475 1428 2131 
L 2881 2131 
z
" transform="scale(0.015625)"/>
      <path id="DejaVuSans-Bold-63" d="M 3366 3391 
L 3366 2478 
Q 3138 2634 2908 2709 
Q 2678 2784 2431 2784 
Q 1963 2784 1702 2511 
Q 1441 2238 1441 1747 
Q 1441 1256 1702 982 
Q 1963 709 2431 709 
Q 2694 709 2930 787 
Q 3166 866 3366 1019 
L 3366 103 
Q 3103 6 2833 -42 
Q 2563 -91 2291 -91 
Q 1344 -91 809 395 
Q 275 881 275 1747 
Q 275 2613 809 3098 
Q 1344 3584 2291 3584 
Q 2566 3584 2833 3536 
Q 3100 3488 3366 3391 
z
" transform="scale(0.015625)"/>
      <path id="DejaVuSans-Bold-75" d="M 500 1363 
L 500 3500 
L 1625 3500 
L 1625 3150 
Q 1625 2866 1622 2436 
Q 1619 2006 1619 1863 
Q 1619 1441 1641 1255 
Q 1663 1069 1716 984 
Q 1784 875 1895 815 
Q 2006 756 2150 756 
Q 2500 756 2700 1025 
Q 2900 1294 2900 1772 
L 2900 3500 
L 4019 3500 
L 4019 0 
L 2900 0 
L 2900 506 
Q 2647 200 2364 54 
Q 2081 -91 1741 -91 
Q 1134 -91 817 281 
Q 500 653 500 1363 
z
" transform="scale(0.015625)"/>
      <path id="DejaVuSans-Bold-72" d="M 3138 2547 
Q 2991 2616 2845 2648 
Q 2700 2681 2553 2681 
Q 2122 2681 1889 2404 
Q 1656 2128 1656 1613 
L 1656 0 
L 538 0 
L 538 3500 
L 1656 3500 
L 1656 2925 
Q 1872 3269 2151 3426 
Q 2431 3584 2822 3584 
Q 2878 3584 2943 3579 
Q 3009 3575 3134 3559 
L 3138 2547 
z
" transform="scale(0.015625)"/>
      <path id="DejaVuSans-Bold-73" d="M 3272 3391 
L 3272 2541 
Q 2913 2691 2578 2766 
Q 2244 2841 1947 2841 
Q 1628 2841 1473 2761 
Q 1319 2681 1319 2516 
Q 1319 2381 1436 2309 
Q 1553 2238 1856 2203 
L 2053 2175 
Q 2913 2066 3209 1816 
Q 3506 1566 3506 1031 
Q 3506 472 3093 190 
Q 2681 -91 1863 -91 
Q 1516 -91 1145 -36 
Q 775 19 384 128 
L 384 978 
Q 719 816 1070 734 
Q 1422 653 1784 653 
Q 2113 653 2278 743 
Q 2444 834 2444 1013 
Q 2444 1163 2330 1236 
Q 2216 1309 1875 1350 
L 1678 1375 
Q 931 1469 631 1722 
Q 331 1975 331 2491 
Q 331 3047 712 3315 
Q 1094 3584 1881 3584 
Q 2191 3584 2531 3537 
Q 2872 3491 3272 3391 
z
" transform="scale(0.015625)"/>
      <path id="DejaVuSans-Bold-69" d="M 538 3500 
L 1656 3500 
L 1656 0 
L 538 0 
L 538 3500 
z
M 538 4863 
L 1656 4863 
L 1656 3950 
L 538 3950 
L 538 4863 
z
" transform="scale(0.015625)"/>
      <path id="DejaVuSans-Bold-76" d="M 97 3500 
L 1216 3500 
L 2088 1081 
L 2956 3500 
L 4078 3500 
L 2700 0 
L 1472 0 
L 97 3500 
z
" transform="scale(0.015625)"/>
      <path id="DejaVuSans-Bold-20" transform="scale(0.015625)"/>
      <path id="DejaVuSans-Bold-53" d="M 3834 4519 
L 3834 3531 
Q 3450 3703 3084 3790 
Q 2719 3878 2394 3878 
Q 1963 3878 1756 3759 
Q 1550 3641 1550 3391 
Q 1550 3203 1689 3098 
Q 1828 2994 2194 2919 
L 2706 2816 
Q 3484 2659 3812 2340 
Q 4141 2022 4141 1434 
Q 4141 663 3683 286 
Q 3225 -91 2284 -91 
Q 1841 -91 1394 -6 
Q 947 78 500 244 
L 500 1259 
Q 947 1022 1364 901 
Q 1781 781 2169 781 
Q 2563 781 2772 912 
Q 2981 1044 2981 1288 
Q 2981 1506 2839 1625 
Q 2697 1744 2272 1838 
L 1806 1941 
Q 1106 2091 782 2419 
Q 459 2747 459 3303 
Q 459 4000 909 4375 
Q 1359 4750 2203 4750 
Q 2588 4750 2994 4692 
Q 3400 4634 3834 4519 
z
" transform="scale(0.015625)"/>
      <path id="DejaVuSans-Bold-74" d="M 1759 4494 
L 1759 3500 
L 2913 3500 
L 2913 2700 
L 1759 2700 
L 1759 1216 
Q 1759 972 1856 886 
Q 1953 800 2241 800 
L 2816 800 
L 2816 0 
L 1856 0 
Q 1194 0 917 276 
Q 641 553 641 1216 
L 641 2700 
L 84 2700 
L 84 3500 
L 641 3500 
L 641 4494 
L 1759 4494 
z
" transform="scale(0.015625)"/>
      <path id="DejaVuSans-Bold-6f" d="M 2203 2784 
Q 1831 2784 1636 2517 
Q 1441 2250 1441 1747 
Q 1441 1244 1636 976 
Q 1831 709 2203 709 
Q 2569 709 2762 976 
Q 2956 1244 2956 1747 
Q 2956 2250 2762 2517 
Q 2569 2784 2203 2784 
z
M 2203 3584 
Q 3106 3584 3614 3096 
Q 4122 2609 4122 1747 
Q 4122 884 3614 396 
Q 3106 -91 2203 -91 
Q 1297 -91 786 396 
Q 275 884 275 1747 
Q 275 2609 786 3096 
Q 1297 3584 2203 3584 
z
" transform="scale(0.015625)"/>
      <path id="DejaVuSans-Bold-6e" d="M 4056 2131 
L 4056 0 
L 2931 0 
L 2931 347 
L 2931 1631 
Q 2931 2084 2911 2256 
Q 2891 2428 2841 2509 
Q 2775 2619 2662 2680 
Q 2550 2741 2406 2741 
Q 2056 2741 1856 2470 
Q 1656 2200 1656 1722 
L 1656 0 
L 538 0 
L 538 3500 
L 1656 3500 
L 1656 2988 
Q 1909 3294 2193 3439 
Q 2478 3584 2822 3584 
Q 3428 3584 3742 3212 
Q 4056 2841 4056 2131 
z
" transform="scale(0.015625)"/>
      <path id="DejaVuSans-Bold-67" d="M 2919 594 
Q 2688 288 2409 144 
Q 2131 0 1766 0 
Q 1125 0 706 504 
Q 288 1009 288 1791 
Q 288 2575 706 3076 
Q 1125 3578 1766 3578 
Q 2131 3578 2409 3434 
Q 2688 3291 2919 2981 
L 2919 3500 
L 4044 3500 
L 4044 353 
Q 4044 -491 3511 -936 
Q 2978 -1381 1966 -1381 
Q 1638 -1381 1331 -1331 
Q 1025 -1281 716 -1178 
L 716 -306 
Q 1009 -475 1290 -558 
Q 1572 -641 1856 -641 
Q 2406 -641 2662 -400 
Q 2919 -159 2919 353 
L 2919 594 
z
M 2181 2772 
Q 1834 2772 1640 2515 
Q 1447 2259 1447 1791 
Q 1447 1309 1634 1061 
Q 1822 813 2181 813 
Q 2531 813 2725 1069 
Q 2919 1325 2919 1791 
Q 2919 2259 2725 2515 
Q 2531 2772 2181 2772 
z
" transform="scale(0.015625)"/>
      <path id="DejaVuSans-Bold-2d" d="M 347 2297 
L 2309 2297 
L 2309 1388 
L 347 1388 
L 347 2297 
z
" transform="scale(0.015625)"/>
      <path id="DejaVuSans-Bold-57" d="M 191 4666 
L 1344 4666 
L 2150 1275 
L 2950 4666 
L 4109 4666 
L 4909 1275 
L 5716 4666 
L 6859 4666 
L 5759 0 
L 4372 0 
L 3525 3547 
L 2688 0 
L 1300 0 
L 191 4666 
z
" transform="scale(0.015625)"/>
      <path id="DejaVuSans-Bold-61" d="M 2106 1575 
Q 1756 1575 1579 1456 
Q 1403 1338 1403 1106 
Q 1403 894 1545 773 
Q 1688 653 1941 653 
Q 2256 653 2472 879 
Q 2688 1106 2688 1447 
L 2688 1575 
L 2106 1575 
z
M 3816 1997 
L 3816 0 
L 2688 0 
L 2688 519 
Q 2463 200 2181 54 
Q 1900 -91 1497 -91 
Q 953 -91 614 226 
Q 275 544 275 1050 
Q 275 1666 698 1953 
Q 1122 2241 2028 2241 
L 2688 2241 
L 2688 2328 
Q 2688 2594 2478 2717 
Q 2269 2841 1825 2841 
Q 1466 2841 1156 2769 
Q 847 2697 581 2553 
L 581 3406 
Q 941 3494 1303 3539 
Q 1666 3584 2028 3584 
Q 2975 3584 3395 3211 
Q 3816 2838 3816 1997 
z
" transform="scale(0.015625)"/>
      <path id="DejaVuSans-Bold-6b" d="M 538 4863 
L 1656 4863 
L 1656 2216 
L 2944 3500 
L 4244 3500 
L 2534 1894 
L 4378 0 
L 3022 0 
L 1656 1459 
L 1656 0 
L 538 0 
L 538 4863 
z
" transform="scale(0.015625)"/>
      <path id="DejaVuSans-Bold-4d" d="M 588 4666 
L 2119 4666 
L 3181 2169 
L 4250 4666 
L 5778 4666 
L 5778 0 
L 4641 0 
L 4641 3413 
L 3566 897 
L 2803 897 
L 1728 3413 
L 1728 0 
L 588 0 
L 588 4666 
z
" transform="scale(0.015625)"/>
      <path id="DejaVuSans-Bold-6c" d="M 538 4863 
L 1656 4863 
L 1656 0 
L 538 0 
L 538 4863 
z
" transform="scale(0.015625)"/>
      <path id="DejaVuSans-Bold-41" d="M 3419 850 
L 1538 850 
L 1241 0 
L 31 0 
L 1759 4666 
L 3194 4666 
L 4922 0 
L 3713 0 
L 3419 850 
z
M 1838 1716 
L 3116 1716 
L 2478 3572 
L 1838 1716 
z
" transform="scale(0.015625)"/>
      <path id="DejaVuSans-Bold-47" d="M 4781 347 
Q 4331 128 3847 18 
Q 3363 -91 2847 -91 
Q 1681 -91 1000 561 
Q 319 1213 319 2328 
Q 319 3456 1012 4103 
Q 1706 4750 2913 4750 
Q 3378 4750 3804 4662 
Q 4231 4575 4609 4403 
L 4609 3438 
Q 4219 3659 3833 3768 
Q 3447 3878 3059 3878 
Q 2341 3878 1952 3476 
Q 1563 3075 1563 2328 
Q 1563 1588 1938 1184 
Q 2313 781 3003 781 
Q 3191 781 3352 804 
Q 3513 828 3641 878 
L 3641 1784 
L 2906 1784 
L 2906 2591 
L 4781 2591 
L 4781 347 
z
" transform="scale(0.015625)"/>
      <path id="DejaVuSans-Bold-64" d="M 2919 2988 
L 2919 4863 
L 4044 4863 
L 4044 0 
L 2919 0 
L 2919 506 
Q 2688 197 2409 53 
Q 2131 -91 1766 -91 
Q 1119 -91 703 423 
Q 288 938 288 1747 
Q 288 2556 703 3070 
Q 1119 3584 1766 3584 
Q 2128 3584 2408 3439 
Q 2688 3294 2919 2988 
z
M 2181 722 
Q 2541 722 2730 984 
Q 2919 1247 2919 1747 
Q 2919 2247 2730 2509 
Q 2541 2772 2181 2772 
Q 1825 2772 1636 2509 
Q 1447 2247 1447 1747 
Q 1447 1247 1636 984 
Q 1825 722 2181 722 
z
" transform="scale(0.015625)"/>
     </defs>
     <use xlink:href="#DejaVuSans-Bold-52"/>
     <use xlink:href="#DejaVuSans-Bold-65" transform="translate(77.001953 0)"/>
     <use xlink:href="#DejaVuSans-Bold-63" transform="translate(144.824219 0)"/>
     <use xlink:href="#DejaVuSans-Bold-75" transform="translate(204.101562 0)"/>
     <use xlink:href="#DejaVuSans-Bold-72" transform="translate(275.292969 0)"/>
     <use xlink:href="#DejaVuSans-Bold-73" transform="translate(324.609375 0)"/>
     <use xlink:href="#DejaVuSans-Bold-69" transform="translate(384.130859 0)"/>
     <use xlink:href="#DejaVuSans-Bold-76" transform="translate(418.408203 0)"/>
     <use xlink:href="#DejaVuSans-Bold-65" transform="translate(483.59375 0)"/>
     <use xlink:href="#DejaVuSans-Bold-20" transform="translate(551.416016 0)"/>
     <use xlink:href="#DejaVuSans-Bold-53" transform="translate(586.230469 0)"/>
     <use xlink:href="#DejaVuSans-Bold-74" transform="translate(658.251953 0)"/>
     <use xlink:href="#DejaVuSans-Bold-72" transform="translate(706.054688 0)"/>
     <use xlink:href="#DejaVuSans-Bold-6f" transform="translate(755.371094 0)"/>
     <use xlink:href="#DejaVuSans-Bold-6e" transform="translate(824.072266 0)"/>
     <use xlink:href="#DejaVuSans-Bold-67" transform="translate(895.263672 0)"/>
     <use xlink:href="#DejaVuSans-Bold-2d" transform="translate(966.845703 0)"/>
     <use xlink:href="#DejaVuSans-Bold-74" transform="translate(1008.349609 0)"/>
     <use xlink:href="#DejaVuSans-Bold-6f" transform="translate(1056.152344 0)"/>
     <use xlink:href="#DejaVuSans-Bold-2d" transform="translate(1124.853516 0)"/>
     <use xlink:href="#DejaVuSans-Bold-57" transform="translate(1161.857422 0)"/>
     <use xlink:href="#DejaVuSans-Bold-65" transform="translate(1268.535156 0)"/>
     <use xlink:href="#DejaVuSans-Bold-61" transform="translate(1336.357422 0)"/>
     <use xlink:href="#DejaVuSans-Bold-6b" transform="translate(1403.837891 0)"/>
     <use xlink:href="#DejaVuSans-Bold-20" transform="translate(1470.341797 0)"/>
     <use xlink:href="#DejaVuSans-Bold-4d" transform="translate(1505.15625 0)"/>
     <use xlink:href="#DejaVuSans-Bold-75" transform="translate(1604.667969 0)"/>
     <use xlink:href="#DejaVuSans-Bold-6c" transform="translate(1675.859375 0)"/>
     <use xlink:href="#DejaVuSans-Bold-74" transform="translate(1710.136719 0)"/>
     <use xlink:href="#DejaVuSans-Bold-69" transform="translate(1757.939453 0)"/>
     <use xlink:href="#DejaVuSans-Bold-2d" transform="translate(1792.216797 0)"/>
     <use xlink:href="#DejaVuSans-Bold-41" transform="translate(1833.720703 0)"/>
     <use xlink:href="#DejaVuSans-Bold-67" transform="translate(1911.113281 0)"/>
     <use xlink:href="#DejaVuSans-Bold-65" transform="translate(1982.695312 0)"/>
     <use xlink:href="#DejaVuSans-Bold-6e" transform="translate(2050.517578 0)"/>
     <use xlink:href="#DejaVuSans-Bold-74" transform="translate(2121.708984 0)"/>
     <use xlink:href="#DejaVuSans-Bold-20" transform="translate(2169.511719 0)"/>
     <use xlink:href="#DejaVuSans-Bold-47" transform="translate(2204.326172 0)"/>
     <use xlink:href="#DejaVuSans-Bold-75" transform="translate(2286.40625 0)"/>
     <use xlink:href="#DejaVuSans-Bold-69" transform="translate(2357.597656 0)"/>
     <use xlink:href="#DejaVuSans-Bold-64" transform="translate(2391.875 0)"/>
     <use xlink:href="#DejaVuSans-Bold-61" transform="translate(2463.457031 0)"/>
     <use xlink:href="#DejaVuSans-Bold-6e" transform="translate(2530.9375 0)"/>
     <use xlink:href="#DejaVuSans-Bold-63" transform="translate(2602.128906 0)"/>
     <use xlink:href="#DejaVuSans-Bold-65" transform="translate(2661.40625 0)"/>
    </g>
   </g>
   <g id="text_2">
    <!-- A strong model supplies anchors and feedback; weak agents explore in parallel; aggregation feeds the next round. -->
    <g style="fill: #5f6673" transform="translate(92.29 49.681504) scale(0.105 -0.105)">
     <defs>
      <path id="DejaVuSans-41" d="M 2188 4044 
L 1331 1722 
L 3047 1722 
L 2188 4044 
z
M 1831 4666 
L 2547 4666 
L 4325 0 
L 3669 0 
L 3244 1197 
L 1141 1197 
L 716 0 
L 50 0 
L 1831 4666 
z
" transform="scale(0.015625)"/>
      <path id="DejaVuSans-20" transform="scale(0.015625)"/>
      <path id="DejaVuSans-73" d="M 2834 3397 
L 2834 2853 
Q 2591 2978 2328 3040 
Q 2066 3103 1784 3103 
Q 1356 3103 1142 2972 
Q 928 2841 928 2578 
Q 928 2378 1081 2264 
Q 1234 2150 1697 2047 
L 1894 2003 
Q 2506 1872 2764 1633 
Q 3022 1394 3022 966 
Q 3022 478 2636 193 
Q 2250 -91 1575 -91 
Q 1294 -91 989 -36 
Q 684 19 347 128 
L 347 722 
Q 666 556 975 473 
Q 1284 391 1588 391 
Q 1994 391 2212 530 
Q 2431 669 2431 922 
Q 2431 1156 2273 1281 
Q 2116 1406 1581 1522 
L 1381 1569 
Q 847 1681 609 1914 
Q 372 2147 372 2553 
Q 372 3047 722 3315 
Q 1072 3584 1716 3584 
Q 2034 3584 2315 3537 
Q 2597 3491 2834 3397 
z
" transform="scale(0.015625)"/>
      <path id="DejaVuSans-74" d="M 1172 4494 
L 1172 3500 
L 2356 3500 
L 2356 3053 
L 1172 3053 
L 1172 1153 
Q 1172 725 1289 603 
Q 1406 481 1766 481 
L 2356 481 
L 2356 0 
L 1766 0 
Q 1100 0 847 248 
Q 594 497 594 1153 
L 594 3053 
L 172 3053 
L 172 3500 
L 594 3500 
L 594 4494 
L 1172 4494 
z
" transform="scale(0.015625)"/>
      <path id="DejaVuSans-72" d="M 2631 2963 
Q 2534 3019 2420 3045 
Q 2306 3072 2169 3072 
Q 1681 3072 1420 2755 
Q 1159 2438 1159 1844 
L 1159 0 
L 581 0 
L 581 3500 
L 1159 3500 
L 1159 2956 
Q 1341 3275 1631 3429 
Q 1922 3584 2338 3584 
Q 2397 3584 2469 3576 
Q 2541 3569 2628 3553 
L 2631 2963 
z
" transform="scale(0.015625)"/>
      <path id="DejaVuSans-6f" d="M 1959 3097 
Q 1497 3097 1228 2736 
Q 959 2375 959 1747 
Q 959 1119 1226 758 
Q 1494 397 1959 397 
Q 2419 397 2687 759 
Q 2956 1122 2956 1747 
Q 2956 2369 2687 2733 
Q 2419 3097 1959 3097 
z
M 1959 3584 
Q 2709 3584 3137 3096 
Q 3566 2609 3566 1747 
Q 3566 888 3137 398 
Q 2709 -91 1959 -91 
Q 1206 -91 779 398 
Q 353 888 353 1747 
Q 353 2609 779 3096 
Q 1206 3584 1959 3584 
z
" transform="scale(0.015625)"/>
      <path id="DejaVuSans-6e" d="M 3513 2113 
L 3513 0 
L 2938 0 
L 2938 2094 
Q 2938 2591 2744 2837 
Q 2550 3084 2163 3084 
Q 1697 3084 1428 2787 
Q 1159 2491 1159 1978 
L 1159 0 
L 581 0 
L 581 3500 
L 1159 3500 
L 1159 2956 
Q 1366 3272 1645 3428 
Q 1925 3584 2291 3584 
Q 2894 3584 3203 3211 
Q 3513 2838 3513 2113 
z
" transform="scale(0.015625)"/>
      <path id="DejaVuSans-67" d="M 2906 1791 
Q 2906 2416 2648 2759 
Q 2391 3103 1925 3103 
Q 1463 3103 1205 2759 
Q 947 2416 947 1791 
Q 947 1169 1205 825 
Q 1463 481 1925 481 
Q 2391 481 2648 825 
Q 2906 1169 2906 1791 
z
M 3481 434 
Q 3481 -459 3084 -895 
Q 2688 -1331 1869 -1331 
Q 1566 -1331 1297 -1286 
Q 1028 -1241 775 -1147 
L 775 -588 
Q 1028 -725 1275 -790 
Q 1522 -856 1778 -856 
Q 2344 -856 2625 -561 
Q 2906 -266 2906 331 
L 2906 616 
Q 2728 306 2450 153 
Q 2172 0 1784 0 
Q 1141 0 747 490 
Q 353 981 353 1791 
Q 353 2603 747 3093 
Q 1141 3584 1784 3584 
Q 2172 3584 2450 3431 
Q 2728 3278 2906 2969 
L 2906 3500 
L 3481 3500 
L 3481 434 
z
" transform="scale(0.015625)"/>
      <path id="DejaVuSans-6d" d="M 3328 2828 
Q 3544 3216 3844 3400 
Q 4144 3584 4550 3584 
Q 5097 3584 5394 3201 
Q 5691 2819 5691 2113 
L 5691 0 
L 5113 0 
L 5113 2094 
Q 5113 2597 4934 2840 
Q 4756 3084 4391 3084 
Q 3944 3084 3684 2787 
Q 3425 2491 3425 1978 
L 3425 0 
L 2847 0 
L 2847 2094 
Q 2847 2600 2669 2842 
Q 2491 3084 2119 3084 
Q 1678 3084 1418 2786 
Q 1159 2488 1159 1978 
L 1159 0 
L 581 0 
L 581 3500 
L 1159 3500 
L 1159 2956 
Q 1356 3278 1631 3431 
Q 1906 3584 2284 3584 
Q 2666 3584 2933 3390 
Q 3200 3197 3328 2828 
z
" transform="scale(0.015625)"/>
      <path id="DejaVuSans-64" d="M 2906 2969 
L 2906 4863 
L 3481 4863 
L 3481 0 
L 2906 0 
L 2906 525 
Q 2725 213 2448 61 
Q 2172 -91 1784 -91 
Q 1150 -91 751 415 
Q 353 922 353 1747 
Q 353 2572 751 3078 
Q 1150 3584 1784 3584 
Q 2172 3584 2448 3432 
Q 2725 3281 2906 2969 
z
M 947 1747 
Q 947 1113 1208 752 
Q 1469 391 1925 391 
Q 2381 391 2643 752 
Q 2906 1113 2906 1747 
Q 2906 2381 2643 2742 
Q 2381 3103 1925 3103 
Q 1469 3103 1208 2742 
Q 947 2381 947 1747 
z
" transform="scale(0.015625)"/>
      <path id="DejaVuSans-65" d="M 3597 1894 
L 3597 1613 
L 953 1613 
Q 991 1019 1311 708 
Q 1631 397 2203 397 
Q 2534 397 2845 478 
Q 3156 559 3463 722 
L 3463 178 
Q 3153 47 2828 -22 
Q 2503 -91 2169 -91 
Q 1331 -91 842 396 
Q 353 884 353 1716 
Q 353 2575 817 3079 
Q 1281 3584 2069 3584 
Q 2775 3584 3186 3129 
Q 3597 2675 3597 1894 
z
M 3022 2063 
Q 3016 2534 2758 2815 
Q 2500 3097 2075 3097 
Q 1594 3097 1305 2825 
Q 1016 2553 972 2059 
L 3022 2063 
z
" transform="scale(0.015625)"/>
      <path id="DejaVuSans-6c" d="M 603 4863 
L 1178 4863 
L 1178 0 
L 603 0 
L 603 4863 
z
" transform="scale(0.015625)"/>
      <path id="DejaVuSans-75" d="M 544 1381 
L 544 3500 
L 1119 3500 
L 1119 1403 
Q 1119 906 1312 657 
Q 1506 409 1894 409 
Q 2359 409 2629 706 
Q 2900 1003 2900 1516 
L 2900 3500 
L 3475 3500 
L 3475 0 
L 2900 0 
L 2900 538 
Q 2691 219 2414 64 
Q 2138 -91 1772 -91 
Q 1169 -91 856 284 
Q 544 659 544 1381 
z
M 1991 3584 
L 1991 3584 
z
" transform="scale(0.015625)"/>
      <path id="DejaVuSans-70" d="M 1159 525 
L 1159 -1331 
L 581 -1331 
L 581 3500 
L 1159 3500 
L 1159 2969 
Q 1341 3281 1617 3432 
Q 1894 3584 2278 3584 
Q 2916 3584 3314 3078 
Q 3713 2572 3713 1747 
Q 3713 922 3314 415 
Q 2916 -91 2278 -91 
Q 1894 -91 1617 61 
Q 1341 213 1159 525 
z
M 3116 1747 
Q 3116 2381 2855 2742 
Q 2594 3103 2138 3103 
Q 1681 3103 1420 2742 
Q 1159 2381 1159 1747 
Q 1159 1113 1420 752 
Q 1681 391 2138 391 
Q 2594 391 2855 752 
Q 3116 1113 3116 1747 
z
" transform="scale(0.015625)"/>
      <path id="DejaVuSans-69" d="M 603 3500 
L 1178 3500 
L 1178 0 
L 603 0 
L 603 3500 
z
M 603 4863 
L 1178 4863 
L 1178 4134 
L 603 4134 
L 603 4863 
z
" transform="scale(0.015625)"/>
      <path id="DejaVuSans-61" d="M 2194 1759 
Q 1497 1759 1228 1600 
Q 959 1441 959 1056 
Q 959 750 1161 570 
Q 1363 391 1709 391 
Q 2188 391 2477 730 
Q 2766 1069 2766 1631 
L 2766 1759 
L 2194 1759 
z
M 3341 1997 
L 3341 0 
L 2766 0 
L 2766 531 
Q 2569 213 2275 61 
Q 1981 -91 1556 -91 
Q 1019 -91 701 211 
Q 384 513 384 1019 
Q 384 1609 779 1909 
Q 1175 2209 1959 2209 
L 2766 2209 
L 2766 2266 
Q 2766 2663 2505 2880 
Q 2244 3097 1772 3097 
Q 1472 3097 1187 3025 
Q 903 2953 641 2809 
L 641 3341 
Q 956 3463 1253 3523 
Q 1550 3584 1831 3584 
Q 2591 3584 2966 3190 
Q 3341 2797 3341 1997 
z
" transform="scale(0.015625)"/>
      <path id="DejaVuSans-63" d="M 3122 3366 
L 3122 2828 
Q 2878 2963 2633 3030 
Q 2388 3097 2138 3097 
Q 1578 3097 1268 2742 
Q 959 2388 959 1747 
Q 959 1106 1268 751 
Q 1578 397 2138 397 
Q 2388 397 2633 464 
Q 2878 531 3122 666 
L 3122 134 
Q 2881 22 2623 -34 
Q 2366 -91 2075 -91 
Q 1284 -91 818 406 
Q 353 903 353 1747 
Q 353 2603 823 3093 
Q 1294 3584 2113 3584 
Q 2378 3584 2631 3529 
Q 2884 3475 3122 3366 
z
" transform="scale(0.015625)"/>
      <path id="DejaVuSans-68" d="M 3513 2113 
L 3513 0 
L 2938 0 
L 2938 2094 
Q 2938 2591 2744 2837 
Q 2550 3084 2163 3084 
Q 1697 3084 1428 2787 
Q 1159 2491 1159 1978 
L 1159 0 
L 581 0 
L 581 4863 
L 1159 4863 
L 1159 2956 
Q 1366 3272 1645 3428 
Q 1925 3584 2291 3584 
Q 2894 3584 3203 3211 
Q 3513 2838 3513 2113 
z
" transform="scale(0.015625)"/>
      <path id="DejaVuSans-66" d="M 2375 4863 
L 2375 4384 
L 1825 4384 
Q 1516 4384 1395 4259 
Q 1275 4134 1275 3809 
L 1275 3500 
L 2222 3500 
L 2222 3053 
L 1275 3053 
L 1275 0 
L 697 0 
L 697 3053 
L 147 3053 
L 147 3500 
L 697 3500 
L 697 3744 
Q 697 4328 969 4595 
Q 1241 4863 1831 4863 
L 2375 4863 
z
" transform="scale(0.015625)"/>
      <path id="DejaVuSans-62" d="M 3116 1747 
Q 3116 2381 2855 2742 
Q 2594 3103 2138 3103 
Q 1681 3103 1420 2742 
Q 1159 2381 1159 1747 
Q 1159 1113 1420 752 
Q 1681 391 2138 391 
Q 2594 391 2855 752 
Q 3116 1113 3116 1747 
z
M 1159 2969 
Q 1341 3281 1617 3432 
Q 1894 3584 2278 3584 
Q 2916 3584 3314 3078 
Q 3713 2572 3713 1747 
Q 3713 922 3314 415 
Q 2916 -91 2278 -91 
Q 1894 -91 1617 61 
Q 1341 213 1159 525 
L 1159 0 
L 581 0 
L 581 4863 
L 1159 4863 
L 1159 2969 
z
" transform="scale(0.015625)"/>
      <path id="DejaVuSans-6b" d="M 581 4863 
L 1159 4863 
L 1159 1991 
L 2875 3500 
L 3609 3500 
L 1753 1863 
L 3688 0 
L 2938 0 
L 1159 1709 
L 1159 0 
L 581 0 
L 581 4863 
z
" transform="scale(0.015625)"/>
      <path id="DejaVuSans-3b" d="M 750 3309 
L 1409 3309 
L 1409 2516 
L 750 2516 
L 750 3309 
z
M 750 794 
L 1409 794 
L 1409 256 
L 897 -744 
L 494 -744 
L 750 256 
L 750 794 
z
" transform="scale(0.015625)"/>
      <path id="DejaVuSans-77" d="M 269 3500 
L 844 3500 
L 1563 769 
L 2278 3500 
L 2956 3500 
L 3675 769 
L 4391 3500 
L 4966 3500 
L 4050 0 
L 3372 0 
L 2619 2869 
L 1863 0 
L 1184 0 
L 269 3500 
z
" transform="scale(0.015625)"/>
      <path id="DejaVuSans-78" d="M 3513 3500 
L 2247 1797 
L 3578 0 
L 2900 0 
L 1881 1375 
L 863 0 
L 184 0 
L 1544 1831 
L 300 3500 
L 978 3500 
L 1906 2253 
L 2834 3500 
L 3513 3500 
z
" transform="scale(0.015625)"/>
      <path id="DejaVuSans-2e" d="M 684 794 
L 1344 794 
L 1344 0 
L 684 0 
L 684 794 
z
" transform="scale(0.015625)"/>
     </defs>
     <use xlink:href="#DejaVuSans-41"/>
     <use xlink:href="#DejaVuSans-20" transform="translate(68.408203 0)"/>
     <use xlink:href="#DejaVuSans-73" transform="translate(100.195312 0)"/>
     <use xlink:href="#DejaVuSans-74" transform="translate(152.294922 0)"/>
     <use xlink:href="#DejaVuSans-72" transform="translate(191.503906 0)"/>
     <use xlink:href="#DejaVuSans-6f" transform="translate(230.367188 0)"/>
     <use xlink:href="#DejaVuSans-6e" transform="translate(291.548828 0)"/>
     <use xlink:href="#DejaVuSans-67" transform="translate(354.927734 0)"/>
     <use xlink:href="#DejaVuSans-20" transform="translate(418.404297 0)"/>
     <use xlink:href="#DejaVuSans-6d" transform="translate(450.191406 0)"/>
     <use xlink:href="#DejaVuSans-6f" transform="translate(547.603516 0)"/>
     <use xlink:href="#DejaVuSans-64" transform="translate(608.785156 0)"/>
     <use xlink:href="#DejaVuSans-65" transform="translate(672.261719 0)"/>
     <use xlink:href="#DejaVuSans-6c" transform="translate(733.785156 0)"/>
     <use xlink:href="#DejaVuSans-20" transform="translate(761.568359 0)"/>
     <use xlink:href="#DejaVuSans-73" transform="translate(793.355469 0)"/>
     <use xlink:href="#DejaVuSans-75" transform="translate(845.455078 0)"/>
     <use xlink:href="#DejaVuSans-70" transform="translate(908.833984 0)"/>
     <use xlink:href="#DejaVuSans-70" transform="translate(972.310547 0)"/>
     <use xlink:href="#DejaVuSans-6c" transform="translate(1035.787109 0)"/>
     <use xlink:href="#DejaVuSans-69" transform="translate(1063.570312 0)"/>
     <use xlink:href="#DejaVuSans-65" transform="translate(1091.353516 0)"/>
     <use xlink:href="#DejaVuSans-73" transform="translate(1152.876953 0)"/>
     <use xlink:href="#DejaVuSans-20" transform="translate(1204.976562 0)"/>
     <use xlink:href="#DejaVuSans-61" transform="translate(1236.763672 0)"/>
     <use xlink:href="#DejaVuSans-6e" transform="translate(1298.042969 0)"/>
     <use xlink:href="#DejaVuSans-63" transform="translate(1361.421875 0)"/>
     <use xlink:href="#DejaVuSans-68" transform="translate(1416.402344 0)"/>
     <use xlink:href="#DejaVuSans-6f" transform="translate(1479.78125 0)"/>
     <use xlink:href="#DejaVuSans-72" transform="translate(1540.962891 0)"/>
     <use xlink:href="#DejaVuSans-73" transform="translate(1582.076172 0)"/>
     <use xlink:href="#DejaVuSans-20" transform="translate(1634.175781 0)"/>
     <use xlink:href="#DejaVuSans-61" transform="translate(1665.962891 0)"/>
     <use xlink:href="#DejaVuSans-6e" transform="translate(1727.242188 0)"/>
     <use xlink:href="#DejaVuSans-64" transform="translate(1790.621094 0)"/>
     <use xlink:href="#DejaVuSans-20" transform="translate(1854.097656 0)"/>
     <use xlink:href="#DejaVuSans-66" transform="translate(1885.884766 0)"/>
     <use xlink:href="#DejaVuSans-65" transform="translate(1921.089844 0)"/>
     <use xlink:href="#DejaVuSans-65" transform="translate(1982.613281 0)"/>
     <use xlink:href="#DejaVuSans-64" transform="translate(2044.136719 0)"/>
     <use xlink:href="#DejaVuSans-62" transform="translate(2107.613281 0)"/>
     <use xlink:href="#DejaVuSans-61" transform="translate(2171.089844 0)"/>
     <use xlink:href="#DejaVuSans-63" transform="translate(2232.369141 0)"/>
     <use xlink:href="#DejaVuSans-6b" transform="translate(2287.349609 0)"/>
     <use xlink:href="#DejaVuSans-3b" transform="translate(2345.259766 0)"/>
     <use xlink:href="#DejaVuSans-20" transform="translate(2378.951172 0)"/>
     <use xlink:href="#DejaVuSans-77" transform="translate(2410.738281 0)"/>
     <use xlink:href="#DejaVuSans-65" transform="translate(2492.525391 0)"/>
     <use xlink:href="#DejaVuSans-61" transform="translate(2554.048828 0)"/>
     <use xlink:href="#DejaVuSans-6b" transform="translate(2615.328125 0)"/>
     <use xlink:href="#DejaVuSans-20" transform="translate(2673.238281 0)"/>
     <use xlink:href="#DejaVuSans-61" transform="translate(2705.025391 0)"/>
     <use xlink:href="#DejaVuSans-67" transform="translate(2766.304688 0)"/>
     <use xlink:href="#DejaVuSans-65" transform="translate(2829.78125 0)"/>
     <use xlink:href="#DejaVuSans-6e" transform="translate(2891.304688 0)"/>
     <use xlink:href="#DejaVuSans-74" transform="translate(2954.683594 0)"/>
     <use xlink:href="#DejaVuSans-73" transform="translate(2993.892578 0)"/>
     <use xlink:href="#DejaVuSans-20" transform="translate(3045.992188 0)"/>
     <use xlink:href="#DejaVuSans-65" transform="translate(3077.779297 0)"/>
     <use xlink:href="#DejaVuSans-78" transform="translate(3137.552734 0)"/>
     <use xlink:href="#DejaVuSans-70" transform="translate(3196.732422 0)"/>
     <use xlink:href="#DejaVuSans-6c" transform="translate(3260.208984 0)"/>
     <use xlink:href="#DejaVuSans-6f" transform="translate(3287.992188 0)"/>
     <use xlink:href="#DejaVuSans-72" transform="translate(3349.173828 0)"/>
     <use xlink:href="#DejaVuSans-65" transform="translate(3388.037109 0)"/>
     <use xlink:href="#DejaVuSans-20" transform="translate(3449.560547 0)"/>
     <use xlink:href="#DejaVuSans-69" transform="translate(3481.347656 0)"/>
     <use xlink:href="#DejaVuSans-6e" transform="translate(3509.130859 0)"/>
     <use xlink:href="#DejaVuSans-20" transform="translate(3572.509766 0)"/>
     <use xlink:href="#DejaVuSans-70" transform="translate(3604.296875 0)"/>
     <use xlink:href="#DejaVuSans-61" transform="translate(3667.773438 0)"/>
     <use xlink:href="#DejaVuSans-72" transform="translate(3729.052734 0)"/>
     <use xlink:href="#DejaVuSans-61" transform="translate(3770.166016 0)"/>
     <use xlink:href="#DejaVuSans-6c" transform="translate(3831.445312 0)"/>
     <use xlink:href="#DejaVuSans-6c" transform="translate(3859.228516 0)"/>
     <use xlink:href="#DejaVuSans-65" transform="translate(3887.011719 0)"/>
     <use xlink:href="#DejaVuSans-6c" transform="translate(3948.535156 0)"/>
     <use xlink:href="#DejaVuSans-3b" transform="translate(3976.318359 0)"/>
     <use xlink:href="#DejaVuSans-20" transform="translate(4010.009766 0)"/>
     <use xlink:href="#DejaVuSans-61" transform="translate(4041.796875 0)"/>
     <use xlink:href="#DejaVuSans-67" transform="translate(4103.076172 0)"/>
     <use xlink:href="#DejaVuSans-67" transform="translate(4166.552734 0)"/>
     <use xlink:href="#DejaVuSans-72" transform="translate(4230.029297 0)"/>
     <use xlink:href="#DejaVuSans-65" transform="translate(4268.892578 0)"/>
     <use xlink:href="#DejaVuSans-67" transform="translate(4330.416016 0)"/>
     <use xlink:href="#DejaVuSans-61" transform="translate(4393.892578 0)"/>
     <use xlink:href="#DejaVuSans-74" transform="translate(4455.171875 0)"/>
     <use xlink:href="#DejaVuSans-69" transform="translate(4494.380859 0)"/>
     <use xlink:href="#DejaVuSans-6f" transform="translate(4522.164062 0)"/>
     <use xlink:href="#DejaVuSans-6e" transform="translate(4583.345703 0)"/>
     <use xlink:href="#DejaVuSans-20" transform="translate(4646.724609 0)"/>
     <use xlink:href="#DejaVuSans-66" transform="translate(4678.511719 0)"/>
     <use xlink:href="#DejaVuSans-65" transform="translate(4713.716797 0)"/>
     <use xlink:href="#DejaVuSans-65" transform="translate(4775.240234 0)"/>
     <use xlink:href="#DejaVuSans-64" transform="translate(4836.763672 0)"/>
     <use xlink:href="#DejaVuSans-73" transform="translate(4900.240234 0)"/>
     <use xlink:href="#DejaVuSans-20" transform="translate(4952.339844 0)"/>
     <use xlink:href="#DejaVuSans-74" transform="translate(4984.126953 0)"/>
     <use xlink:href="#DejaVuSans-68" transform="translate(5023.335938 0)"/>
     <use xlink:href="#DejaVuSans-65" transform="translate(5086.714844 0)"/>
     <use xlink:href="#DejaVuSans-20" transform="translate(5148.238281 0)"/>
     <use xlink:href="#DejaVuSans-6e" transform="translate(5180.025391 0)"/>
     <use xlink:href="#DejaVuSans-65" transform="translate(5243.404297 0)"/>
     <use xlink:href="#DejaVuSans-78" transform="translate(5303.177734 0)"/>
     <use xlink:href="#DejaVuSans-74" transform="translate(5362.357422 0)"/>
     <use xlink:href="#DejaVuSans-20" transform="translate(5401.566406 0)"/>
     <use xlink:href="#DejaVuSans-72" transform="translate(5433.353516 0)"/>
     <use xlink:href="#DejaVuSans-6f" transform="translate(5472.216797 0)"/>
     <use xlink:href="#DejaVuSans-75" transform="translate(5533.398438 0)"/>
     <use xlink:href="#DejaVuSans-6e" transform="translate(5596.777344 0)"/>
     <use xlink:href="#DejaVuSans-64" transform="translate(5660.15625 0)"/>
     <use xlink:href="#DejaVuSans-2e" transform="translate(5723.632812 0)"/>
    </g>
   </g>
   <g id="text_3">
    <!-- Strong model -->
    <g style="fill: #222222" transform="translate(348.730469 81.029047) scale(0.12 -0.12)">
     <defs>
      <path id="DejaVuSans-Bold-6d" d="M 3781 2919 
Q 3994 3244 4286 3414 
Q 4578 3584 4928 3584 
Q 5531 3584 5847 3212 
Q 6163 2841 6163 2131 
L 6163 0 
L 5038 0 
L 5038 1825 
Q 5041 1866 5042 1909 
Q 5044 1953 5044 2034 
Q 5044 2406 4934 2573 
Q 4825 2741 4581 2741 
Q 4263 2741 4089 2478 
Q 3916 2216 3909 1719 
L 3909 0 
L 2784 0 
L 2784 1825 
Q 2784 2406 2684 2573 
Q 2584 2741 2328 2741 
Q 2006 2741 1831 2477 
Q 1656 2213 1656 1722 
L 1656 0 
L 531 0 
L 531 3500 
L 1656 3500 
L 1656 2988 
Q 1863 3284 2130 3434 
Q 2397 3584 2719 3584 
Q 3081 3584 3359 3409 
Q 3638 3234 3781 2919 
z
" transform="scale(0.015625)"/>
     </defs>
     <use xlink:href="#DejaVuSans-Bold-53"/>
     <use xlink:href="#DejaVuSans-Bold-74" transform="translate(72.021484 0)"/>
     <use xlink:href="#DejaVuSans-Bold-72" transform="translate(119.824219 0)"/>
     <use xlink:href="#DejaVuSans-Bold-6f" transform="translate(169.140625 0)"/>
     <use xlink:href="#DejaVuSans-Bold-6e" transform="translate(237.841797 0)"/>
     <use xlink:href="#DejaVuSans-Bold-67" transform="translate(309.033203 0)"/>
     <use xlink:href="#DejaVuSans-Bold-20" transform="translate(380.615234 0)"/>
     <use xlink:href="#DejaVuSans-Bold-6d" transform="translate(415.429688 0)"/>
     <use xlink:href="#DejaVuSans-Bold-6f" transform="translate(519.628906 0)"/>
     <use xlink:href="#DejaVuSans-Bold-64" transform="translate(588.330078 0)"/>
     <use xlink:href="#DejaVuSans-Bold-65" transform="translate(659.912109 0)"/>
     <use xlink:href="#DejaVuSans-Bold-6c" transform="translate(727.734375 0)"/>
    </g>
    <!-- teacher / anchor -->
    <g style="fill: #222222" transform="translate(339.008594 94.560172) scale(0.12 -0.12)">
     <defs>
      <path id="DejaVuSans-Bold-68" d="M 4056 2131 
L 4056 0 
L 2931 0 
L 2931 347 
L 2931 1625 
Q 2931 2084 2911 2256 
Q 2891 2428 2841 2509 
Q 2775 2619 2662 2680 
Q 2550 2741 2406 2741 
Q 2056 2741 1856 2470 
Q 1656 2200 1656 1722 
L 1656 0 
L 538 0 
L 538 4863 
L 1656 4863 
L 1656 2988 
Q 1909 3294 2193 3439 
Q 2478 3584 2822 3584 
Q 3428 3584 3742 3212 
Q 4056 2841 4056 2131 
z
" transform="scale(0.015625)"/>
      <path id="DejaVuSans-Bold-2f" d="M 1644 4666 
L 2338 4666 
L 691 -594 
L 0 -594 
L 1644 4666 
z
" transform="scale(0.015625)"/>
     </defs>
     <use xlink:href="#DejaVuSans-Bold-74"/>
     <use xlink:href="#DejaVuSans-Bold-65" transform="translate(47.802734 0)"/>
     <use xlink:href="#DejaVuSans-Bold-61" transform="translate(115.625 0)"/>
     <use xlink:href="#DejaVuSans-Bold-63" transform="translate(183.105469 0)"/>
     <use xlink:href="#DejaVuSans-Bold-68" transform="translate(242.382812 0)"/>
     <use xlink:href="#DejaVuSans-Bold-65" transform="translate(313.574219 0)"/>
     <use xlink:href="#DejaVuSans-Bold-72" transform="translate(381.396484 0)"/>
     <use xlink:href="#DejaVuSans-Bold-20" transform="translate(430.712891 0)"/>
     <use xlink:href="#DejaVuSans-Bold-2f" transform="translate(465.527344 0)"/>
     <use xlink:href="#DejaVuSans-Bold-20" transform="translate(502.050781 0)"/>
     <use xlink:href="#DejaVuSans-Bold-61" transform="translate(536.865234 0)"/>
     <use xlink:href="#DejaVuSans-Bold-6e" transform="translate(604.345703 0)"/>
     <use xlink:href="#DejaVuSans-Bold-63" transform="translate(675.537109 0)"/>
     <use xlink:href="#DejaVuSans-Bold-68" transform="translate(734.814453 0)"/>
     <use xlink:href="#DejaVuSans-Bold-6f" transform="translate(806.005859 0)"/>
     <use xlink:href="#DejaVuSans-Bold-72" transform="translate(874.707031 0)"/>
    </g>
   </g>
   <g id="text_4">
    <!-- Weak agent 1 -->
    <g style="fill: #222222" transform="translate(137.911531 183.608664) scale(0.11 -0.11)">
     <defs>
      <path id="DejaVuSans-Bold-31" d="M 750 831 
L 1813 831 
L 1813 3847 
L 722 3622 
L 722 4441 
L 1806 4666 
L 2950 4666 
L 2950 831 
L 4013 831 
L 4013 0 
L 750 0 
L 750 831 
z
" transform="scale(0.015625)"/>
     </defs>
     <use xlink:href="#DejaVuSans-Bold-57"/>
     <use xlink:href="#DejaVuSans-Bold-65" transform="translate(106.677734 0)"/>
     <use xlink:href="#DejaVuSans-Bold-61" transform="translate(174.5 0)"/>
     <use xlink:href="#DejaVuSans-Bold-6b" transform="translate(241.980469 0)"/>
     <use xlink:href="#DejaVuSans-Bold-20" transform="translate(308.484375 0)"/>
     <use xlink:href="#DejaVuSans-Bold-61" transform="translate(343.298828 0)"/>
     <use xlink:href="#DejaVuSans-Bold-67" transform="translate(410.779297 0)"/>
     <use xlink:href="#DejaVuSans-Bold-65" transform="translate(482.361328 0)"/>
     <use xlink:href="#DejaVuSans-Bold-6e" transform="translate(550.183594 0)"/>
     <use xlink:href="#DejaVuSans-Bold-74" transform="translate(621.375 0)"/>
     <use xlink:href="#DejaVuSans-Bold-20" transform="translate(669.177734 0)"/>
     <use xlink:href="#DejaVuSans-Bold-31" transform="translate(703.992188 0)"/>
    </g>
   </g>
   <g id="text_5">
    <!-- Weak agent 2 -->
    <g style="fill: #222222" transform="translate(289.352731 183.608664) scale(0.11 -0.11)">
     <defs>
      <path id="DejaVuSans-Bold-32" d="M 1844 884 
L 3897 884 
L 3897 0 
L 506 0 
L 506 884 
L 2209 2388 
Q 2438 2594 2547 2791 
Q 2656 2988 2656 3200 
Q 2656 3528 2436 3728 
Q 2216 3928 1850 3928 
Q 1569 3928 1234 3808 
Q 900 3688 519 3450 
L 519 4475 
Q 925 4609 1322 4679 
Q 1719 4750 2100 4750 
Q 2938 4750 3402 4381 
Q 3866 4013 3866 3353 
Q 3866 2972 3669 2642 
Q 3472 2313 2841 1759 
L 1844 884 
z
" transform="scale(0.015625)"/>
     </defs>
     <use xlink:href="#DejaVuSans-Bold-57"/>
     <use xlink:href="#DejaVuSans-Bold-65" transform="translate(106.677734 0)"/>
     <use xlink:href="#DejaVuSans-Bold-61" transform="translate(174.5 0)"/>
     <use xlink:href="#DejaVuSans-Bold-6b" transform="translate(241.980469 0)"/>
     <use xlink:href="#DejaVuSans-Bold-20" transform="translate(308.484375 0)"/>
     <use xlink:href="#DejaVuSans-Bold-61" transform="translate(343.298828 0)"/>
     <use xlink:href="#DejaVuSans-Bold-67" transform="translate(410.779297 0)"/>
     <use xlink:href="#DejaVuSans-Bold-65" transform="translate(482.361328 0)"/>
     <use xlink:href="#DejaVuSans-Bold-6e" transform="translate(550.183594 0)"/>
     <use xlink:href="#DejaVuSans-Bold-74" transform="translate(621.375 0)"/>
     <use xlink:href="#DejaVuSans-Bold-20" transform="translate(669.177734 0)"/>
     <use xlink:href="#DejaVuSans-Bold-32" transform="translate(703.992188 0)"/>
    </g>
   </g>
   <g id="text_6">
    <!-- Weak agent 3 -->
    <g style="fill: #222222" transform="translate(440.793931 183.608664) scale(0.11 -0.11)">
     <defs>
      <path id="DejaVuSans-Bold-33" d="M 2981 2516 
Q 3453 2394 3698 2092 
Q 3944 1791 3944 1325 
Q 3944 631 3412 270 
Q 2881 -91 1863 -91 
Q 1503 -91 1142 -33 
Q 781 25 428 141 
L 428 1069 
Q 766 900 1098 814 
Q 1431 728 1753 728 
Q 2231 728 2486 893 
Q 2741 1059 2741 1369 
Q 2741 1688 2480 1852 
Q 2219 2016 1709 2016 
L 1228 2016 
L 1228 2791 
L 1734 2791 
Q 2188 2791 2409 2933 
Q 2631 3075 2631 3366 
Q 2631 3634 2415 3781 
Q 2200 3928 1806 3928 
Q 1516 3928 1219 3862 
Q 922 3797 628 3669 
L 628 4550 
Q 984 4650 1334 4700 
Q 1684 4750 2022 4750 
Q 2931 4750 3382 4451 
Q 3834 4153 3834 3553 
Q 3834 3144 3618 2883 
Q 3403 2622 2981 2516 
z
" transform="scale(0.015625)"/>
     </defs>
     <use xlink:href="#DejaVuSans-Bold-57"/>
     <use xlink:href="#DejaVuSans-Bold-65" transform="translate(106.677734 0)"/>
     <use xlink:href="#DejaVuSans-Bold-61" transform="translate(174.5 0)"/>
     <use xlink:href="#DejaVuSans-Bold-6b" transform="translate(241.980469 0)"/>
     <use xlink:href="#DejaVuSans-Bold-20" transform="translate(308.484375 0)"/>
     <use xlink:href="#DejaVuSans-Bold-61" transform="translate(343.298828 0)"/>
     <use xlink:href="#DejaVuSans-Bold-67" transform="translate(410.779297 0)"/>
     <use xlink:href="#DejaVuSans-Bold-65" transform="translate(482.361328 0)"/>
     <use xlink:href="#DejaVuSans-Bold-6e" transform="translate(550.183594 0)"/>
     <use xlink:href="#DejaVuSans-Bold-74" transform="translate(621.375 0)"/>
     <use xlink:href="#DejaVuSans-Bold-20" transform="translate(669.177734 0)"/>
     <use xlink:href="#DejaVuSans-Bold-33" transform="translate(703.992188 0)"/>
    </g>
   </g>
   <g id="text_7">
    <!-- Agent n -->
    <g style="fill: #222222" transform="translate(597.3143 183.565695) scale(0.11 -0.11)">
     <use xlink:href="#DejaVuSans-Bold-41"/>
     <use xlink:href="#DejaVuSans-Bold-67" transform="translate(77.392578 0)"/>
     <use xlink:href="#DejaVuSans-Bold-65" transform="translate(148.974609 0)"/>
     <use xlink:href="#DejaVuSans-Bold-6e" transform="translate(216.796875 0)"/>
     <use xlink:href="#DejaVuSans-Bold-74" transform="translate(287.988281 0)"/>
     <use xlink:href="#DejaVuSans-Bold-20" transform="translate(335.791016 0)"/>
     <use xlink:href="#DejaVuSans-Bold-6e" transform="translate(370.605469 0)"/>
    </g>
   </g>
   <g id="text_8">
    <!-- Basin / answer -->
    <g style="fill: #222222" transform="translate(285.421937 252.049717) scale(0.105 -0.105)">
     <defs>
      <path id="DejaVuSans-Bold-42" d="M 2456 2859 
Q 2741 2859 2887 2984 
Q 3034 3109 3034 3353 
Q 3034 3594 2887 3720 
Q 2741 3847 2456 3847 
L 1791 3847 
L 1791 2859 
L 2456 2859 
z
M 2497 819 
Q 2859 819 3042 972 
Q 3225 1125 3225 1434 
Q 3225 1738 3044 1889 
Q 2863 2041 2497 2041 
L 1791 2041 
L 1791 819 
L 2497 819 
z
M 3616 2497 
Q 4003 2384 4215 2081 
Q 4428 1778 4428 1338 
Q 4428 663 3972 331 
Q 3516 0 2584 0 
L 588 0 
L 588 4666 
L 2394 4666 
Q 3366 4666 3802 4372 
Q 4238 4078 4238 3431 
Q 4238 3091 4078 2852 
Q 3919 2613 3616 2497 
z
" transform="scale(0.015625)"/>
      <path id="DejaVuSans-Bold-77" d="M 225 3500 
L 1313 3500 
L 1900 1088 
L 2491 3500 
L 3425 3500 
L 4013 1113 
L 4603 3500 
L 5691 3500 
L 4769 0 
L 3547 0 
L 2956 2406 
L 2369 0 
L 1147 0 
L 225 3500 
z
" transform="scale(0.015625)"/>
     </defs>
     <use xlink:href="#DejaVuSans-Bold-42"/>
     <use xlink:href="#DejaVuSans-Bold-61" transform="translate(76.220703 0)"/>
     <use xlink:href="#DejaVuSans-Bold-73" transform="translate(143.701172 0)"/>
     <use xlink:href="#DejaVuSans-Bold-69" transform="translate(203.222656 0)"/>
     <use xlink:href="#DejaVuSans-Bold-6e" transform="translate(237.5 0)"/>
     <use xlink:href="#DejaVuSans-Bold-20" transform="translate(308.691406 0)"/>
     <use xlink:href="#DejaVuSans-Bold-2f" transform="translate(343.505859 0)"/>
     <use xlink:href="#DejaVuSans-Bold-20" transform="translate(380.029297 0)"/>
     <use xlink:href="#DejaVuSans-Bold-61" transform="translate(414.84375 0)"/>
     <use xlink:href="#DejaVuSans-Bold-6e" transform="translate(482.324219 0)"/>
     <use xlink:href="#DejaVuSans-Bold-73" transform="translate(553.515625 0)"/>
     <use xlink:href="#DejaVuSans-Bold-77" transform="translate(613.037109 0)"/>
     <use xlink:href="#DejaVuSans-Bold-65" transform="translate(705.419922 0)"/>
     <use xlink:href="#DejaVuSans-Bold-72" transform="translate(773.242188 0)"/>
    </g>
    <!-- aggregation -->
    <g style="fill: #222222" transform="translate(292.443812 263.80742) scale(0.105 -0.105)">
     <use xlink:href="#DejaVuSans-Bold-61"/>
     <use xlink:href="#DejaVuSans-Bold-67" transform="translate(67.480469 0)"/>
     <use xlink:href="#DejaVuSans-Bold-67" transform="translate(139.0625 0)"/>
     <use xlink:href="#DejaVuSans-Bold-72" transform="translate(210.644531 0)"/>
     <use xlink:href="#DejaVuSans-Bold-65" transform="translate(259.960938 0)"/>
     <use xlink:href="#DejaVuSans-Bold-67" transform="translate(327.783203 0)"/>
     <use xlink:href="#DejaVuSans-Bold-61" transform="translate(399.365234 0)"/>
     <use xlink:href="#DejaVuSans-Bold-74" transform="translate(466.845703 0)"/>
     <use xlink:href="#DejaVuSans-Bold-69" transform="translate(514.648438 0)"/>
     <use xlink:href="#DejaVuSans-Bold-6f" transform="translate(548.925781 0)"/>
     <use xlink:href="#DejaVuSans-Bold-6e" transform="translate(617.626953 0)"/>
    </g>
   </g>
   <g id="text_9">
    <!-- Verifier -->
    <g style="fill: #222222" transform="translate(451.505964 252.049717) scale(0.105 -0.105)">
     <defs>
      <path id="DejaVuSans-Bold-56" d="M 31 4666 
L 1241 4666 
L 2478 1222 
L 3713 4666 
L 4922 4666 
L 3194 0 
L 1759 0 
L 31 4666 
z
" transform="scale(0.015625)"/>
      <path id="DejaVuSans-Bold-66" d="M 2841 4863 
L 2841 4128 
L 2222 4128 
Q 1984 4128 1890 4042 
Q 1797 3956 1797 3744 
L 1797 3500 
L 2753 3500 
L 2753 2700 
L 1797 2700 
L 1797 0 
L 678 0 
L 678 2700 
L 122 2700 
L 122 3500 
L 678 3500 
L 678 3744 
Q 678 4316 997 4589 
Q 1316 4863 1984 4863 
L 2841 4863 
z
" transform="scale(0.015625)"/>
     </defs>
     <use xlink:href="#DejaVuSans-Bold-56"/>
     <use xlink:href="#DejaVuSans-Bold-65" transform="translate(71.892578 0)"/>
     <use xlink:href="#DejaVuSans-Bold-72" transform="translate(139.714844 0)"/>
     <use xlink:href="#DejaVuSans-Bold-69" transform="translate(189.03125 0)"/>
     <use xlink:href="#DejaVuSans-Bold-66" transform="translate(223.308594 0)"/>
     <use xlink:href="#DejaVuSans-Bold-69" transform="translate(266.814453 0)"/>
     <use xlink:href="#DejaVuSans-Bold-65" transform="translate(301.091797 0)"/>
     <use xlink:href="#DejaVuSans-Bold-72" transform="translate(368.914062 0)"/>
    </g>
    <!-- or judge -->
    <g style="fill: #222222" transform="translate(448.826003 263.80742) scale(0.105 -0.105)">
     <defs>
      <path id="DejaVuSans-Bold-6a" d="M 538 3500 
L 1656 3500 
L 1656 63 
Q 1656 -641 1318 -1011 
Q 981 -1381 341 -1381 
L -213 -1381 
L -213 -647 
L -19 -647 
Q 300 -647 419 -503 
Q 538 -359 538 63 
L 538 3500 
z
M 538 4863 
L 1656 4863 
L 1656 3950 
L 538 3950 
L 538 4863 
z
" transform="scale(0.015625)"/>
     </defs>
     <use xlink:href="#DejaVuSans-Bold-6f"/>
     <use xlink:href="#DejaVuSans-Bold-72" transform="translate(68.701172 0)"/>
     <use xlink:href="#DejaVuSans-Bold-20" transform="translate(118.017578 0)"/>
     <use xlink:href="#DejaVuSans-Bold-6a" transform="translate(152.832031 0)"/>
     <use xlink:href="#DejaVuSans-Bold-75" transform="translate(187.109375 0)"/>
     <use xlink:href="#DejaVuSans-Bold-64" transform="translate(258.300781 0)"/>
     <use xlink:href="#DejaVuSans-Bold-67" transform="translate(329.882812 0)"/>
     <use xlink:href="#DejaVuSans-Bold-65" transform="translate(401.464844 0)"/>
    </g>
   </g>
   <g id="text_10">
    <!-- Selected answer -->
    <g style="fill: #222222" transform="translate(345.574609 319.949292) scale(0.105 -0.105)">
     <use xlink:href="#DejaVuSans-Bold-53"/>
     <use xlink:href="#DejaVuSans-Bold-65" transform="translate(72.021484 0)"/>
     <use xlink:href="#DejaVuSans-Bold-6c" transform="translate(139.84375 0)"/>
     <use xlink:href="#DejaVuSans-Bold-65" transform="translate(174.121094 0)"/>
     <use xlink:href="#DejaVuSans-Bold-63" transform="translate(241.943359 0)"/>
     <use xlink:href="#DejaVuSans-Bold-74" transform="translate(301.220703 0)"/>
     <use xlink:href="#DejaVuSans-Bold-65" transform="translate(349.023438 0)"/>
     <use xlink:href="#DejaVuSans-Bold-64" transform="translate(416.845703 0)"/>
     <use xlink:href="#DejaVuSans-Bold-20" transform="translate(488.427734 0)"/>
     <use xlink:href="#DejaVuSans-Bold-61" transform="translate(523.242188 0)"/>
     <use xlink:href="#DejaVuSans-Bold-6e" transform="translate(590.722656 0)"/>
     <use xlink:href="#DejaVuSans-Bold-73" transform="translate(661.914062 0)"/>
     <use xlink:href="#DejaVuSans-Bold-77" transform="translate(721.435547 0)"/>
     <use xlink:href="#DejaVuSans-Bold-65" transform="translate(813.818359 0)"/>
     <use xlink:href="#DejaVuSans-Bold-72" transform="translate(881.640625 0)"/>
    </g>
    <!-- + next prompt state -->
    <g style="fill: #222222" transform="translate(334.435586 331.706995) scale(0.105 -0.105)">
     <defs>
      <path id="DejaVuSans-Bold-2b" d="M 3053 4013 
L 3053 2375 
L 4684 2375 
L 4684 1638 
L 3053 1638 
L 3053 0 
L 2309 0 
L 2309 1638 
L 678 1638 
L 678 2375 
L 2309 2375 
L 2309 4013 
L 3053 4013 
z
" transform="scale(0.015625)"/>
      <path id="DejaVuSans-Bold-78" d="M 1422 1791 
L 159 3500 
L 1344 3500 
L 2059 2463 
L 2784 3500 
L 3969 3500 
L 2706 1797 
L 4031 0 
L 2847 0 
L 2059 1106 
L 1281 0 
L 97 0 
L 1422 1791 
z
" transform="scale(0.015625)"/>
      <path id="DejaVuSans-Bold-70" d="M 1656 506 
L 1656 -1331 
L 538 -1331 
L 538 3500 
L 1656 3500 
L 1656 2988 
Q 1888 3294 2169 3439 
Q 2450 3584 2816 3584 
Q 3463 3584 3878 3070 
Q 4294 2556 4294 1747 
Q 4294 938 3878 423 
Q 3463 -91 2816 -91 
Q 2450 -91 2169 54 
Q 1888 200 1656 506 
z
M 2400 2772 
Q 2041 2772 1848 2508 
Q 1656 2244 1656 1747 
Q 1656 1250 1848 986 
Q 2041 722 2400 722 
Q 2759 722 2948 984 
Q 3138 1247 3138 1747 
Q 3138 2247 2948 2509 
Q 2759 2772 2400 2772 
z
" transform="scale(0.015625)"/>
     </defs>
     <use xlink:href="#DejaVuSans-Bold-2b"/>
     <use xlink:href="#DejaVuSans-Bold-20" transform="translate(83.789062 0)"/>
     <use xlink:href="#DejaVuSans-Bold-6e" transform="translate(118.603516 0)"/>
     <use xlink:href="#DejaVuSans-Bold-65" transform="translate(189.794922 0)"/>
     <use xlink:href="#DejaVuSans-Bold-78" transform="translate(257.617188 0)"/>
     <use xlink:href="#DejaVuSans-Bold-74" transform="translate(322.119141 0)"/>
     <use xlink:href="#DejaVuSans-Bold-20" transform="translate(369.921875 0)"/>
     <use xlink:href="#DejaVuSans-Bold-70" transform="translate(404.736328 0)"/>
     <use xlink:href="#DejaVuSans-Bold-72" transform="translate(476.318359 0)"/>
     <use xlink:href="#DejaVuSans-Bold-6f" transform="translate(525.634766 0)"/>
     <use xlink:href="#DejaVuSans-Bold-6d" transform="translate(594.335938 0)"/>
     <use xlink:href="#DejaVuSans-Bold-70" transform="translate(698.535156 0)"/>
     <use xlink:href="#DejaVuSans-Bold-74" transform="translate(770.117188 0)"/>
     <use xlink:href="#DejaVuSans-Bold-20" transform="translate(817.919922 0)"/>
     <use xlink:href="#DejaVuSans-Bold-73" transform="translate(852.734375 0)"/>
     <use xlink:href="#DejaVuSans-Bold-74" transform="translate(912.255859 0)"/>
     <use xlink:href="#DejaVuSans-Bold-61" transform="translate(960.058594 0)"/>
     <use xlink:href="#DejaVuSans-Bold-74" transform="translate(1027.539062 0)"/>
     <use xlink:href="#DejaVuSans-Bold-65" transform="translate(1075.341797 0)"/>
    </g>
   </g>
   <g id="text_11">
    <!-- recursive feedback: -->
    <g style="fill: #6d28d9" transform="translate(591.982469 247.998204) scale(0.095 -0.095)">
     <defs>
      <path id="DejaVuSans-Bold-62" d="M 2400 722 
Q 2759 722 2948 984 
Q 3138 1247 3138 1747 
Q 3138 2247 2948 2509 
Q 2759 2772 2400 2772 
Q 2041 2772 1848 2508 
Q 1656 2244 1656 1747 
Q 1656 1250 1848 986 
Q 2041 722 2400 722 
z
M 1656 2988 
Q 1888 3294 2169 3439 
Q 2450 3584 2816 3584 
Q 3463 3584 3878 3070 
Q 4294 2556 4294 1747 
Q 4294 938 3878 423 
Q 3463 -91 2816 -91 
Q 2450 -91 2169 54 
Q 1888 200 1656 506 
L 1656 0 
L 538 0 
L 538 4863 
L 1656 4863 
L 1656 2988 
z
" transform="scale(0.015625)"/>
      <path id="DejaVuSans-Bold-3a" d="M 716 3500 
L 1844 3500 
L 1844 2291 
L 716 2291 
L 716 3500 
z
M 716 1209 
L 1844 1209 
L 1844 0 
L 716 0 
L 716 1209 
z
" transform="scale(0.015625)"/>
     </defs>
     <use xlink:href="#DejaVuSans-Bold-72"/>
     <use xlink:href="#DejaVuSans-Bold-65" transform="translate(49.316406 0)"/>
     <use xlink:href="#DejaVuSans-Bold-63" transform="translate(117.138672 0)"/>
     <use xlink:href="#DejaVuSans-Bold-75" transform="translate(176.416016 0)"/>
     <use xlink:href="#DejaVuSans-Bold-72" transform="translate(247.607422 0)"/>
     <use xlink:href="#DejaVuSans-Bold-73" transform="translate(296.923828 0)"/>
     <use xlink:href="#DejaVuSans-Bold-69" transform="translate(356.445312 0)"/>
     <use xlink:href="#DejaVuSans-Bold-76" transform="translate(390.722656 0)"/>
     <use xlink:href="#DejaVuSans-Bold-65" transform="translate(455.908203 0)"/>
     <use xlink:href="#DejaVuSans-Bold-20" transform="translate(523.730469 0)"/>
     <use xlink:href="#DejaVuSans-Bold-66" transform="translate(558.544922 0)"/>
     <use xlink:href="#DejaVuSans-Bold-65" transform="translate(602.050781 0)"/>
     <use xlink:href="#DejaVuSans-Bold-65" transform="translate(669.873047 0)"/>
     <use xlink:href="#DejaVuSans-Bold-64" transform="translate(737.695312 0)"/>
     <use xlink:href="#DejaVuSans-Bold-62" transform="translate(809.277344 0)"/>
     <use xlink:href="#DejaVuSans-Bold-61" transform="translate(880.859375 0)"/>
     <use xlink:href="#DejaVuSans-Bold-63" transform="translate(948.339844 0)"/>
     <use xlink:href="#DejaVuSans-Bold-6b" transform="translate(1007.617188 0)"/>
     <use xlink:href="#DejaVuSans-Bold-3a" transform="translate(1074.121094 0)"/>
    </g>
    <!-- update anchors, -->
    <g style="fill: #6d28d9" transform="translate(591.982469 258.636126) scale(0.095 -0.095)">
     <defs>
      <path id="DejaVuSans-Bold-2c" d="M 653 1209 
L 1778 1209 
L 1778 256 
L 1006 -909 
L 341 -909 
L 653 256 
L 653 1209 
z
" transform="scale(0.015625)"/>
     </defs>
     <use xlink:href="#DejaVuSans-Bold-75"/>
     <use xlink:href="#DejaVuSans-Bold-70" transform="translate(71.191406 0)"/>
     <use xlink:href="#DejaVuSans-Bold-64" transform="translate(142.773438 0)"/>
     <use xlink:href="#DejaVuSans-Bold-61" transform="translate(214.355469 0)"/>
     <use xlink:href="#DejaVuSans-Bold-74" transform="translate(281.835938 0)"/>
     <use xlink:href="#DejaVuSans-Bold-65" transform="translate(329.638672 0)"/>
     <use xlink:href="#DejaVuSans-Bold-20" transform="translate(397.460938 0)"/>
     <use xlink:href="#DejaVuSans-Bold-61" transform="translate(432.275391 0)"/>
     <use xlink:href="#DejaVuSans-Bold-6e" transform="translate(499.755859 0)"/>
     <use xlink:href="#DejaVuSans-Bold-63" transform="translate(570.947266 0)"/>
     <use xlink:href="#DejaVuSans-Bold-68" transform="translate(630.224609 0)"/>
     <use xlink:href="#DejaVuSans-Bold-6f" transform="translate(701.416016 0)"/>
     <use xlink:href="#DejaVuSans-Bold-72" transform="translate(770.117188 0)"/>
     <use xlink:href="#DejaVuSans-Bold-73" transform="translate(819.433594 0)"/>
     <use xlink:href="#DejaVuSans-Bold-2c" transform="translate(878.955078 0)"/>
    </g>
    <!-- prompts, or roles -->
    <g style="fill: #6d28d9" transform="translate(591.982469 269.274048) scale(0.095 -0.095)">
     <use xlink:href="#DejaVuSans-Bold-70"/>
     <use xlink:href="#DejaVuSans-Bold-72" transform="translate(71.582031 0)"/>
     <use xlink:href="#DejaVuSans-Bold-6f" transform="translate(120.898438 0)"/>
     <use xlink:href="#DejaVuSans-Bold-6d" transform="translate(189.599609 0)"/>
     <use xlink:href="#DejaVuSans-Bold-70" transform="translate(293.798828 0)"/>
     <use xlink:href="#DejaVuSans-Bold-74" transform="translate(365.380859 0)"/>
     <use xlink:href="#DejaVuSans-Bold-73" transform="translate(413.183594 0)"/>
     <use xlink:href="#DejaVuSans-Bold-2c" transform="translate(472.705078 0)"/>
     <use xlink:href="#DejaVuSans-Bold-20" transform="translate(510.693359 0)"/>
     <use xlink:href="#DejaVuSans-Bold-6f" transform="translate(545.507812 0)"/>
     <use xlink:href="#DejaVuSans-Bold-72" transform="translate(614.208984 0)"/>
     <use xlink:href="#DejaVuSans-Bold-20" transform="translate(663.525391 0)"/>
     <use xlink:href="#DejaVuSans-Bold-72" transform="translate(698.339844 0)"/>
     <use xlink:href="#DejaVuSans-Bold-6f" transform="translate(747.65625 0)"/>
     <use xlink:href="#DejaVuSans-Bold-6c" transform="translate(816.357422 0)"/>
     <use xlink:href="#DejaVuSans-Bold-65" transform="translate(850.634766 0)"/>
     <use xlink:href="#DejaVuSans-Bold-73" transform="translate(918.457031 0)"/>
    </g>
   </g>
   <g id="text_12">
    <!-- parallel exploration -->
    <g style="fill: #5f6673" transform="translate(144.243269 224.624065) scale(0.092 -0.092)">
     <use xlink:href="#DejaVuSans-70"/>
     <use xlink:href="#DejaVuSans-61" transform="translate(63.476562 0)"/>
     <use xlink:href="#DejaVuSans-72" transform="translate(124.755859 0)"/>
     <use xlink:href="#DejaVuSans-61" transform="translate(165.869141 0)"/>
     <use xlink:href="#DejaVuSans-6c" transform="translate(227.148438 0)"/>
     <use xlink:href="#DejaVuSans-6c" transform="translate(254.931641 0)"/>
     <use xlink:href="#DejaVuSans-65" transform="translate(282.714844 0)"/>
     <use xlink:href="#DejaVuSans-6c" transform="translate(344.238281 0)"/>
     <use xlink:href="#DejaVuSans-20" transform="translate(372.021484 0)"/>
     <use xlink:href="#DejaVuSans-65" transform="translate(403.808594 0)"/>
     <use xlink:href="#DejaVuSans-78" transform="translate(463.582031 0)"/>
     <use xlink:href="#DejaVuSans-70" transform="translate(522.761719 0)"/>
     <use xlink:href="#DejaVuSans-6c" transform="translate(586.238281 0)"/>
     <use xlink:href="#DejaVuSans-6f" transform="translate(614.021484 0)"/>
     <use xlink:href="#DejaVuSans-72" transform="translate(675.203125 0)"/>
     <use xlink:href="#DejaVuSans-61" transform="translate(716.316406 0)"/>
     <use xlink:href="#DejaVuSans-74" transform="translate(777.595703 0)"/>
     <use xlink:href="#DejaVuSans-69" transform="translate(816.804688 0)"/>
     <use xlink:href="#DejaVuSans-6f" transform="translate(844.587891 0)"/>
     <use xlink:href="#DejaVuSans-6e" transform="translate(905.769531 0)"/>
    </g>
   </g>
   <g id="text_13">
    <!-- candidate basins -->
    <g style="fill: #5f6673" transform="translate(335.190869 224.624065) scale(0.092 -0.092)">
     <use xlink:href="#DejaVuSans-63"/>
     <use xlink:href="#DejaVuSans-61" transform="translate(54.980469 0)"/>
     <use xlink:href="#DejaVuSans-6e" transform="translate(116.259766 0)"/>
     <use xlink:href="#DejaVuSans-64" transform="translate(179.638672 0)"/>
     <use xlink:href="#DejaVuSans-69" transform="translate(243.115234 0)"/>
     <use xlink:href="#DejaVuSans-64" transform="translate(270.898438 0)"/>
     <use xlink:href="#DejaVuSans-61" transform="translate(334.375 0)"/>
     <use xlink:href="#DejaVuSans-74" transform="translate(395.654297 0)"/>
     <use xlink:href="#DejaVuSans-65" transform="translate(434.863281 0)"/>
     <use xlink:href="#DejaVuSans-20" transform="translate(496.386719 0)"/>
     <use xlink:href="#DejaVuSans-62" transform="translate(528.173828 0)"/>
     <use xlink:href="#DejaVuSans-61" transform="translate(591.650391 0)"/>
     <use xlink:href="#DejaVuSans-73" transform="translate(652.929688 0)"/>
     <use xlink:href="#DejaVuSans-69" transform="translate(705.029297 0)"/>
     <use xlink:href="#DejaVuSans-6e" transform="translate(732.8125 0)"/>
     <use xlink:href="#DejaVuSans-73" transform="translate(796.191406 0)"/>
    </g>
   </g>
   <g id="text_14">
    <!-- cross-checking -->
    <g style="fill: #5f6673" transform="translate(506.385269 224.624065) scale(0.092 -0.092)">
     <defs>
      <path id="DejaVuSans-2d" d="M 313 2009 
L 1997 2009 
L 1997 1497 
L 313 1497 
L 313 2009 
z
" transform="scale(0.015625)"/>
     </defs>
     <use xlink:href="#DejaVuSans-63"/>
     <use xlink:href="#DejaVuSans-72" transform="translate(54.980469 0)"/>
     <use xlink:href="#DejaVuSans-6f" transform="translate(93.84375 0)"/>
     <use xlink:href="#DejaVuSans-73" transform="translate(155.025391 0)"/>
     <use xlink:href="#DejaVuSans-73" transform="translate(207.125 0)"/>
     <use xlink:href="#DejaVuSans-2d" transform="translate(259.224609 0)"/>
     <use xlink:href="#DejaVuSans-63" transform="translate(295.308594 0)"/>
     <use xlink:href="#DejaVuSans-68" transform="translate(350.289062 0)"/>
     <use xlink:href="#DejaVuSans-65" transform="translate(413.667969 0)"/>
     <use xlink:href="#DejaVuSans-63" transform="translate(475.191406 0)"/>
     <use xlink:href="#DejaVuSans-6b" transform="translate(530.171875 0)"/>
     <use xlink:href="#DejaVuSans-69" transform="translate(588.082031 0)"/>
     <use xlink:href="#DejaVuSans-6e" transform="translate(615.865234 0)"/>
     <use xlink:href="#DejaVuSans-67" transform="translate(679.244141 0)"/>
    </g>
   </g>
  </g>
  <g id="text_15">
   <!-- Conceptual diagram: the strong model need not generate the final answer directly; it can guide, verify, and recursively reshape a weak-agent search process. -->
   <g style="fill: #5f6673" transform="translate(7.2 423.533406) scale(0.095 -0.095)">
    <defs>
     <path id="DejaVuSans-43" d="M 4122 4306 
L 4122 3641 
Q 3803 3938 3442 4084 
Q 3081 4231 2675 4231 
Q 1875 4231 1450 3742 
Q 1025 3253 1025 2328 
Q 1025 1406 1450 917 
Q 1875 428 2675 428 
Q 3081 428 3442 575 
Q 3803 722 4122 1019 
L 4122 359 
Q 3791 134 3420 21 
Q 3050 -91 2638 -91 
Q 1578 -91 968 557 
Q 359 1206 359 2328 
Q 359 3453 968 4101 
Q 1578 4750 2638 4750 
Q 3056 4750 3426 4639 
Q 3797 4528 4122 4306 
z
" transform="scale(0.015625)"/>
     <path id="DejaVuSans-3a" d="M 750 794 
L 1409 794 
L 1409 0 
L 750 0 
L 750 794 
z
M 750 3309 
L 1409 3309 
L 1409 2516 
L 750 2516 
L 750 3309 
z
" transform="scale(0.015625)"/>
     <path id="DejaVuSans-79" d="M 2059 -325 
Q 1816 -950 1584 -1140 
Q 1353 -1331 966 -1331 
L 506 -1331 
L 506 -850 
L 844 -850 
Q 1081 -850 1212 -737 
Q 1344 -625 1503 -206 
L 1606 56 
L 191 3500 
L 800 3500 
L 1894 763 
L 2988 3500 
L 3597 3500 
L 2059 -325 
z
" transform="scale(0.015625)"/>
     <path id="DejaVuSans-2c" d="M 750 794 
L 1409 794 
L 1409 256 
L 897 -744 
L 494 -744 
L 750 256 
L 750 794 
z
" transform="scale(0.015625)"/>
     <path id="DejaVuSans-76" d="M 191 3500 
L 800 3500 
L 1894 563 
L 2988 3500 
L 3597 3500 
L 2284 0 
L 1503 0 
L 191 3500 
z
" transform="scale(0.015625)"/>
    </defs>
    <use xlink:href="#DejaVuSans-43"/>
    <use xlink:href="#DejaVuSans-6f" transform="translate(69.824219 0)"/>
    <use xlink:href="#DejaVuSans-6e" transform="translate(131.005859 0)"/>
    <use xlink:href="#DejaVuSans-63" transform="translate(194.384766 0)"/>
    <use xlink:href="#DejaVuSans-65" transform="translate(249.365234 0)"/>
    <use xlink:href="#DejaVuSans-70" transform="translate(310.888672 0)"/>
    <use xlink:href="#DejaVuSans-74" transform="translate(374.365234 0)"/>
    <use xlink:href="#DejaVuSans-75" transform="translate(413.574219 0)"/>
    <use xlink:href="#DejaVuSans-61" transform="translate(476.953125 0)"/>
    <use xlink:href="#DejaVuSans-6c" transform="translate(538.232422 0)"/>
    <use xlink:href="#DejaVuSans-20" transform="translate(566.015625 0)"/>
    <use xlink:href="#DejaVuSans-64" transform="translate(597.802734 0)"/>
    <use xlink:href="#DejaVuSans-69" transform="translate(661.279297 0)"/>
    <use xlink:href="#DejaVuSans-61" transform="translate(689.0625 0)"/>
    <use xlink:href="#DejaVuSans-67" transform="translate(750.341797 0)"/>
    <use xlink:href="#DejaVuSans-72" transform="translate(813.818359 0)"/>
    <use xlink:href="#DejaVuSans-61" transform="translate(854.931641 0)"/>
    <use xlink:href="#DejaVuSans-6d" transform="translate(916.210938 0)"/>
    <use xlink:href="#DejaVuSans-3a" transform="translate(1013.623047 0)"/>
    <use xlink:href="#DejaVuSans-20" transform="translate(1047.314453 0)"/>
    <use xlink:href="#DejaVuSans-74" transform="translate(1079.101562 0)"/>
    <use xlink:href="#DejaVuSans-68" transform="translate(1118.310547 0)"/>
    <use xlink:href="#DejaVuSans-65" transform="translate(1181.689453 0)"/>
    <use xlink:href="#DejaVuSans-20" transform="translate(1243.212891 0)"/>
    <use xlink:href="#DejaVuSans-73" transform="translate(1275 0)"/>
    <use xlink:href="#DejaVuSans-74" transform="translate(1327.099609 0)"/>
    <use xlink:href="#DejaVuSans-72" transform="translate(1366.308594 0)"/>
    <use xlink:href="#DejaVuSans-6f" transform="translate(1405.171875 0)"/>
    <use xlink:href="#DejaVuSans-6e" transform="translate(1466.353516 0)"/>
    <use xlink:href="#DejaVuSans-67" transform="translate(1529.732422 0)"/>
    <use xlink:href="#DejaVuSans-20" transform="translate(1593.208984 0)"/>
    <use xlink:href="#DejaVuSans-6d" transform="translate(1624.996094 0)"/>
    <use xlink:href="#DejaVuSans-6f" transform="translate(1722.408203 0)"/>
    <use xlink:href="#DejaVuSans-64" transform="translate(1783.589844 0)"/>
    <use xlink:href="#DejaVuSans-65" transform="translate(1847.066406 0)"/>
    <use xlink:href="#DejaVuSans-6c" transform="translate(1908.589844 0)"/>
    <use xlink:href="#DejaVuSans-20" transform="translate(1936.373047 0)"/>
    <use xlink:href="#DejaVuSans-6e" transform="translate(1968.160156 0)"/>
    <use xlink:href="#DejaVuSans-65" transform="translate(2031.539062 0)"/>
    <use xlink:href="#DejaVuSans-65" transform="translate(2093.0625 0)"/>
    <use xlink:href="#DejaVuSans-64" transform="translate(2154.585938 0)"/>
    <use xlink:href="#DejaVuSans-20" transform="translate(2218.0625 0)"/>
    <use xlink:href="#DejaVuSans-6e" transform="translate(2249.849609 0)"/>
    <use xlink:href="#DejaVuSans-6f" transform="translate(2313.228516 0)"/>
    <use xlink:href="#DejaVuSans-74" transform="translate(2374.410156 0)"/>
    <use xlink:href="#DejaVuSans-20" transform="translate(2413.619141 0)"/>
    <use xlink:href="#DejaVuSans-67" transform="translate(2445.40625 0)"/>
    <use xlink:href="#DejaVuSans-65" transform="translate(2508.882812 0)"/>
    <use xlink:href="#DejaVuSans-6e" transform="translate(2570.40625 0)"/>
    <use xlink:href="#DejaVuSans-65" transform="translate(2633.785156 0)"/>
    <use xlink:href="#DejaVuSans-72" transform="translate(2695.308594 0)"/>
    <use xlink:href="#DejaVuSans-61" transform="translate(2736.421875 0)"/>
    <use xlink:href="#DejaVuSans-74" transform="translate(2797.701172 0)"/>
    <use xlink:href="#DejaVuSans-65" transform="translate(2836.910156 0)"/>
    <use xlink:href="#DejaVuSans-20" transform="translate(2898.433594 0)"/>
    <use xlink:href="#DejaVuSans-74" transform="translate(2930.220703 0)"/>
    <use xlink:href="#DejaVuSans-68" transform="translate(2969.429688 0)"/>
    <use xlink:href="#DejaVuSans-65" transform="translate(3032.808594 0)"/>
    <use xlink:href="#DejaVuSans-20" transform="translate(3094.332031 0)"/>
    <use xlink:href="#DejaVuSans-66" transform="translate(3126.119141 0)"/>
    <use xlink:href="#DejaVuSans-69" transform="translate(3161.324219 0)"/>
    <use xlink:href="#DejaVuSans-6e" transform="translate(3189.107422 0)"/>
    <use xlink:href="#DejaVuSans-61" transform="translate(3252.486328 0)"/>
    <use xlink:href="#DejaVuSans-6c" transform="translate(3313.765625 0)"/>
    <use xlink:href="#DejaVuSans-20" transform="translate(3341.548828 0)"/>
    <use xlink:href="#DejaVuSans-61" transform="translate(3373.335938 0)"/>
    <use xlink:href="#DejaVuSans-6e" transform="translate(3434.615234 0)"/>
    <use xlink:href="#DejaVuSans-73" transform="translate(3497.994141 0)"/>
    <use xlink:href="#DejaVuSans-77" transform="translate(3550.09375 0)"/>
    <use xlink:href="#DejaVuSans-65" transform="translate(3631.880859 0)"/>
    <use xlink:href="#DejaVuSans-72" transform="translate(3693.404297 0)"/>
    <use xlink:href="#DejaVuSans-20" transform="translate(3734.517578 0)"/>
    <use xlink:href="#DejaVuSans-64" transform="translate(3766.304688 0)"/>
    <use xlink:href="#DejaVuSans-69" transform="translate(3829.78125 0)"/>
    <use xlink:href="#DejaVuSans-72" transform="translate(3857.564453 0)"/>
    <use xlink:href="#DejaVuSans-65" transform="translate(3896.427734 0)"/>
    <use xlink:href="#DejaVuSans-63" transform="translate(3957.951172 0)"/>
    <use xlink:href="#DejaVuSans-74" transform="translate(4012.931641 0)"/>
    <use xlink:href="#DejaVuSans-6c" transform="translate(4052.140625 0)"/>
    <use xlink:href="#DejaVuSans-79" transform="translate(4079.923828 0)"/>
    <use xlink:href="#DejaVuSans-3b" transform="translate(4139.103516 0)"/>
    <use xlink:href="#DejaVuSans-20" transform="translate(4172.794922 0)"/>
    <use xlink:href="#DejaVuSans-69" transform="translate(4204.582031 0)"/>
    <use xlink:href="#DejaVuSans-74" transform="translate(4232.365234 0)"/>
    <use xlink:href="#DejaVuSans-20" transform="translate(4271.574219 0)"/>
    <use xlink:href="#DejaVuSans-63" transform="translate(4303.361328 0)"/>
    <use xlink:href="#DejaVuSans-61" transform="translate(4358.341797 0)"/>
    <use xlink:href="#DejaVuSans-6e" transform="translate(4419.621094 0)"/>
    <use xlink:href="#DejaVuSans-20" transform="translate(4483 0)"/>
    <use xlink:href="#DejaVuSans-67" transform="translate(4514.787109 0)"/>
    <use xlink:href="#DejaVuSans-75" transform="translate(4578.263672 0)"/>
    <use xlink:href="#DejaVuSans-69" transform="translate(4641.642578 0)"/>
    <use xlink:href="#DejaVuSans-64" transform="translate(4669.425781 0)"/>
    <use xlink:href="#DejaVuSans-65" transform="translate(4732.902344 0)"/>
    <use xlink:href="#DejaVuSans-2c" transform="translate(4794.425781 0)"/>
    <use xlink:href="#DejaVuSans-20" transform="translate(4826.212891 0)"/>
    <use xlink:href="#DejaVuSans-76" transform="translate(4858 0)"/>
    <use xlink:href="#DejaVuSans-65" transform="translate(4917.179688 0)"/>
    <use xlink:href="#DejaVuSans-72" transform="translate(4978.703125 0)"/>
    <use xlink:href="#DejaVuSans-69" transform="translate(5019.816406 0)"/>
    <use xlink:href="#DejaVuSans-66" transform="translate(5047.599609 0)"/>
    <use xlink:href="#DejaVuSans-79" transform="translate(5081.054688 0)"/>
    <use xlink:href="#DejaVuSans-2c" transform="translate(5140.234375 0)"/>
    <use xlink:href="#DejaVuSans-20" transform="translate(5172.021484 0)"/>
    <use xlink:href="#DejaVuSans-61" transform="translate(5203.808594 0)"/>
    <use xlink:href="#DejaVuSans-6e" transform="translate(5265.087891 0)"/>
    <use xlink:href="#DejaVuSans-64" transform="translate(5328.466797 0)"/>
    <use xlink:href="#DejaVuSans-20" transform="translate(5391.943359 0)"/>
    <use xlink:href="#DejaVuSans-72" transform="translate(5423.730469 0)"/>
    <use xlink:href="#DejaVuSans-65" transform="translate(5462.59375 0)"/>
    <use xlink:href="#DejaVuSans-63" transform="translate(5524.117188 0)"/>
    <use xlink:href="#DejaVuSans-75" transform="translate(5579.097656 0)"/>
    <use xlink:href="#DejaVuSans-72" transform="translate(5642.476562 0)"/>
    <use xlink:href="#DejaVuSans-73" transform="translate(5683.589844 0)"/>
    <use xlink:href="#DejaVuSans-69" transform="translate(5735.689453 0)"/>
    <use xlink:href="#DejaVuSans-76" transform="translate(5763.472656 0)"/>
    <use xlink:href="#DejaVuSans-65" transform="translate(5822.652344 0)"/>
    <use xlink:href="#DejaVuSans-6c" transform="translate(5884.175781 0)"/>
    <use xlink:href="#DejaVuSans-79" transform="translate(5911.958984 0)"/>
    <use xlink:href="#DejaVuSans-20" transform="translate(5971.138672 0)"/>
    <use xlink:href="#DejaVuSans-72" transform="translate(6002.925781 0)"/>
    <use xlink:href="#DejaVuSans-65" transform="translate(6041.789062 0)"/>
    <use xlink:href="#DejaVuSans-73" transform="translate(6103.3125 0)"/>
    <use xlink:href="#DejaVuSans-68" transform="translate(6155.412109 0)"/>
    <use xlink:href="#DejaVuSans-61" transform="translate(6218.791016 0)"/>
    <use xlink:href="#DejaVuSans-70" transform="translate(6280.070312 0)"/>
    <use xlink:href="#DejaVuSans-65" transform="translate(6343.546875 0)"/>
    <use xlink:href="#DejaVuSans-20" transform="translate(6405.070312 0)"/>
    <use xlink:href="#DejaVuSans-61" transform="translate(6436.857422 0)"/>
    <use xlink:href="#DejaVuSans-20" transform="translate(6498.136719 0)"/>
    <use xlink:href="#DejaVuSans-77" transform="translate(6529.923828 0)"/>
    <use xlink:href="#DejaVuSans-65" transform="translate(6611.710938 0)"/>
    <use xlink:href="#DejaVuSans-61" transform="translate(6673.234375 0)"/>
    <use xlink:href="#DejaVuSans-6b" transform="translate(6734.513672 0)"/>
    <use xlink:href="#DejaVuSans-2d" transform="translate(6792.423828 0)"/>
    <use xlink:href="#DejaVuSans-61" transform="translate(6828.507812 0)"/>
    <use xlink:href="#DejaVuSans-67" transform="translate(6889.787109 0)"/>
    <use xlink:href="#DejaVuSans-65" transform="translate(6953.263672 0)"/>
    <use xlink:href="#DejaVuSans-6e" transform="translate(7014.787109 0)"/>
    <use xlink:href="#DejaVuSans-74" transform="translate(7078.166016 0)"/>
    <use xlink:href="#DejaVuSans-20" transform="translate(7117.375 0)"/>
    <use xlink:href="#DejaVuSans-73" transform="translate(7149.162109 0)"/>
    <use xlink:href="#DejaVuSans-65" transform="translate(7201.261719 0)"/>
    <use xlink:href="#DejaVuSans-61" transform="translate(7262.785156 0)"/>
    <use xlink:href="#DejaVuSans-72" transform="translate(7324.064453 0)"/>
    <use xlink:href="#DejaVuSans-63" transform="translate(7362.927734 0)"/>
    <use xlink:href="#DejaVuSans-68" transform="translate(7417.908203 0)"/>
    <use xlink:href="#DejaVuSans-20" transform="translate(7481.287109 0)"/>
    <use xlink:href="#DejaVuSans-70" transform="translate(7513.074219 0)"/>
    <use xlink:href="#DejaVuSans-72" transform="translate(7576.550781 0)"/>
    <use xlink:href="#DejaVuSans-6f" transform="translate(7615.414062 0)"/>
    <use xlink:href="#DejaVuSans-63" transform="translate(7676.595703 0)"/>
    <use xlink:href="#DejaVuSans-65" transform="translate(7731.576172 0)"/>
    <use xlink:href="#DejaVuSans-73" transform="translate(7793.099609 0)"/>
    <use xlink:href="#DejaVuSans-73" transform="translate(7845.199219 0)"/>
    <use xlink:href="#DejaVuSans-2e" transform="translate(7897.298828 0)"/>
   </g>
  </g>
 </g>
 <defs>
  <clipPath id="p1d686e0e51">
   <rect x="65.230469" y="7.2" width="658.44" height="376.992"/>
  </clipPath>
 </defs>
</svg>
